# MagicaVoxel @ Ephtracy

# group
o 

# material
mtllib MetalFence.mtl
usemtl palette

# normals
vn -1 0 0
vn 1 0 0
vn 0 0 1
vn 0 0 -1
vn 0 -1 0
vn 0 1 0

# texcoords
vt 0.0214844 0.5
vt 0.0253906 0.5
vt 0.0292969 0.5

# verts
v -0.2 0.2 0.4
v -0.2 0.2 0.3
v -0.2 0.2 -0.1
v -0.2 0.2 -0.2
v -0.2 0.2 -0.4
v -0.2 0.3 0.4
v -0.2 0.3 0.3
v -0.2 0.3 -0.1
v -0.2 0.3 -0.2
v -0.2 0.3 -0.4
v -0.2 1.8 0.4
v -0.2 1.8 0.3
v -0.2 1.8 0.1
v -0.2 1.8 0
v -0.2 1.8 -0.1
v -0.2 1.8 -0.2
v -0.2 1.8 -0.4
v -0.2 1.9 0.4
v -0.2 1.9 0.3
v -0.2 1.9 0.1
v -0.2 1.9 0
v -0.2 1.9 -0.1
v -0.2 1.9 -0.2
v -0.2 1.9 -0.4
v -0.1 0.3 0.4
v -0.1 0.3 0.3
v -0.1 0.3 0.1
v -0.1 0.3 -0.1
v -0.1 0.3 -0.3
v -0.1 0.3 -0.4
v -0.1 1.8 0.4
v -0.1 1.8 0.3
v -0.1 1.8 0.1
v -0.1 1.8 0
v -0.1 1.8 -0.1
v -0.1 1.8 -0.3
v -0.1 1.8 -0.4
v -0.1 1.9 0.4
v -0.1 1.9 0.3
v -0.1 1.9 0.1
v -0.1 1.9 0
v -0.1 1.9 -0.1
v -0.1 1.9 -0.3
v -0.1 1.9 -0.4
v -0.1 2.1 0.4
v -0.1 2.1 0.3
v -0.1 2.1 0.2
v -0.1 2.1 -0.2
v -0.1 2.1 -0.3
v -0.1 2.1 -0.4
v -0.1 2.2 0.3
v -0.1 2.2 0.2
v -0.1 2.2 0.1
v -0.1 2.2 -0.1
v -0.1 2.2 -0.2
v -0.1 2.2 -0.3
v -0.1 2.3 0.2
v -0.1 2.3 0.1
v -0.1 2.3 -0.1
v -0.1 2.3 -0.2
v 0 0.3 0.4
v 0 0.3 0.3
v 0 0.3 0.1
v 0 0.3 -0.1
v 0 0.3 -0.3
v 0 0.3 -0.4
v 0 1.8 0.4
v 0 1.8 0.3
v 0 1.8 0.1
v 0 1.8 0
v 0 1.8 -0.1
v 0 1.8 -0.3
v 0 1.8 -0.4
v 0 1.9 0.4
v 0 1.9 0.3
v 0 1.9 0.1
v 0 1.9 0
v 0 1.9 -0.1
v 0 1.9 -0.3
v 0 1.9 -0.4
v 0 2.1 0.4
v 0 2.1 0.3
v 0 2.1 0.2
v 0 2.1 -0.2
v 0 2.1 -0.3
v 0 2.1 -0.4
v 0 2.2 0.3
v 0 2.2 0.2
v 0 2.2 0.1
v 0 2.2 -0.1
v 0 2.2 -0.2
v 0 2.2 -0.3
v 0 2.3 0.2
v 0 2.3 0.1
v 0 2.3 -0.1
v 0 2.3 -0.2
v 0.1 0.2 0.4
v 0.1 0.2 0.3
v 0.1 0.2 -0.1
v 0.1 0.2 -0.2
v 0.1 0.2 -0.4
v 0.1 0.3 0.4
v 0.1 0.3 0.3
v 0.1 0.3 -0.1
v 0.1 0.3 -0.2
v 0.1 0.3 -0.4
v 0.1 1.8 0.4
v 0.1 1.8 0.3
v 0.1 1.8 0.1
v 0.1 1.8 0
v 0.1 1.8 -0.1
v 0.1 1.8 -0.2
v 0.1 1.8 -0.4
v 0.1 1.9 0.4
v 0.1 1.9 0.3
v 0.1 1.9 0.1
v 0.1 1.9 0
v 0.1 1.9 -0.1
v 0.1 1.9 -0.2
v 0.1 1.9 -0.4
v -0.2 0.2 0.4
v -0.2 0.3 0.4
v -0.2 1.8 0.4
v -0.2 1.9 0.4
v -0.1 0.2 0.4
v -0.1 0.3 0.4
v -0.1 1.8 0.4
v -0.1 1.9 0.4
v -0.1 2.1 0.4
v 0 0.2 0.4
v 0 0.3 0.4
v 0 1.8 0.4
v 0 1.9 0.4
v 0 2.1 0.4
v 0.1 0.2 0.4
v 0.1 0.3 0.4
v 0.1 1.8 0.4
v 0.1 1.9 0.4
v -0.1 2.1 0.3
v -0.1 2.2 0.3
v 0 2.1 0.3
v 0 2.2 0.3
v -0.1 2.2 0.2
v -0.1 2.3 0.2
v 0 2.2 0.2
v 0 2.3 0.2
v -0.1 0.3 0.1
v -0.1 1.8 0.1
v -0.1 1.9 0.1
v -0.1 2.2 0.1
v 0 0.3 0.1
v 0 1.8 0.1
v 0 1.9 0.1
v 0 2.2 0.1
v -0.1 2.2 -0.1
v -0.1 2.3 -0.1
v 0 2.2 -0.1
v 0 2.3 -0.1
v -0.1 2.1 -0.2
v -0.1 2.2 -0.2
v 0 2.1 -0.2
v 0 2.2 -0.2
v -0.1 0.3 -0.3
v -0.1 1.8 -0.3
v -0.1 1.9 -0.3
v -0.1 2.1 -0.3
v 0 0.3 -0.3
v 0 1.8 -0.3
v 0 1.9 -0.3
v 0 2.1 -0.3
v -0.1 0.3 0.3
v -0.1 1.8 0.3
v -0.1 1.9 0.3
v -0.1 2.1 0.3
v 0 0.3 0.3
v 0 1.8 0.3
v 0 1.9 0.3
v 0 2.1 0.3
v -0.1 2.1 0.2
v -0.1 2.2 0.2
v 0 2.1 0.2
v 0 2.2 0.2
v -0.1 2.2 0.1
v -0.1 2.3 0.1
v 0 2.2 0.1
v 0 2.3 0.1
v -0.1 0.3 -0.1
v -0.1 1.8 -0.1
v -0.1 1.9 -0.1
v -0.1 2.2 -0.1
v 0 0.3 -0.1
v 0 1.8 -0.1
v 0 1.9 -0.1
v 0 2.2 -0.1
v -0.1 2.2 -0.2
v -0.1 2.3 -0.2
v 0 2.2 -0.2
v 0 2.3 -0.2
v -0.1 2.1 -0.3
v -0.1 2.2 -0.3
v 0 2.1 -0.3
v 0 2.2 -0.3
v -0.2 0.2 -0.4
v -0.2 0.3 -0.4
v -0.2 1.8 -0.4
v -0.2 1.9 -0.4
v -0.1 0.3 -0.4
v -0.1 1.8 -0.4
v -0.1 1.9 -0.4
v -0.1 2.1 -0.4
v 0 0.3 -0.4
v 0 1.8 -0.4
v 0 1.9 -0.4
v 0 2.1 -0.4
v 0.1 0.2 -0.4
v 0.1 0.3 -0.4
v 0.1 1.8 -0.4
v 0.1 1.9 -0.4
v -0.2 0.2 0.4
v -0.1 0.2 0.4
v 0 0.2 0.4
v 0.1 0.2 0.4
v -0.2 0.2 0.3
v -0.1 0.2 0.3
v 0 0.2 0.3
v 0.1 0.2 0.3
v -0.2 0.2 -0.1
v -0.1 0.2 -0.1
v 0 0.2 -0.1
v 0.1 0.2 -0.1
v -0.2 0.2 -0.2
v -0.1 0.2 -0.2
v 0 0.2 -0.2
v 0.1 0.2 -0.2
v -0.2 0.2 -0.4
v 0.1 0.2 -0.4
v -0.2 1.8 0.4
v -0.1 1.8 0.4
v 0 1.8 0.4
v 0.1 1.8 0.4
v -0.2 1.8 0.3
v -0.1 1.8 0.3
v 0 1.8 0.3
v 0.1 1.8 0.3
v -0.2 1.8 0.1
v -0.1 1.8 0.1
v 0 1.8 0.1
v 0.1 1.8 0.1
v -0.2 1.8 0
v -0.1 1.8 0
v 0 1.8 0
v 0.1 1.8 0
v -0.2 1.8 -0.1
v -0.1 1.8 -0.1
v 0 1.8 -0.1
v 0.1 1.8 -0.1
v -0.2 1.8 -0.2
v -0.1 1.8 -0.2
v 0 1.8 -0.2
v 0.1 1.8 -0.2
v -0.1 1.8 -0.3
v 0 1.8 -0.3
v -0.2 1.8 -0.4
v -0.1 1.8 -0.4
v 0 1.8 -0.4
v 0.1 1.8 -0.4
v -0.1 2.1 0.3
v 0 2.1 0.3
v -0.1 2.1 0.2
v 0 2.1 0.2
v -0.1 2.1 -0.2
v 0 2.1 -0.2
v -0.1 2.1 -0.3
v 0 2.1 -0.3
v -0.1 2.2 0.2
v 0 2.2 0.2
v -0.1 2.2 0.1
v 0 2.2 0.1
v -0.1 2.2 -0.1
v 0 2.2 -0.1
v -0.1 2.2 -0.2
v 0 2.2 -0.2
v -0.2 0.3 0.4
v -0.1 0.3 0.4
v 0 0.3 0.4
v 0.1 0.3 0.4
v -0.2 0.3 0.3
v -0.1 0.3 0.3
v 0 0.3 0.3
v 0.1 0.3 0.3
v -0.1 0.3 0.1
v 0 0.3 0.1
v -0.2 0.3 -0.1
v -0.1 0.3 -0.1
v 0 0.3 -0.1
v 0.1 0.3 -0.1
v -0.2 0.3 -0.2
v -0.1 0.3 -0.2
v 0 0.3 -0.2
v 0.1 0.3 -0.2
v -0.1 0.3 -0.3
v 0 0.3 -0.3
v -0.2 0.3 -0.4
v -0.1 0.3 -0.4
v 0 0.3 -0.4
v 0.1 0.3 -0.4
v -0.2 1.9 0.4
v -0.1 1.9 0.4
v 0 1.9 0.4
v 0.1 1.9 0.4
v -0.2 1.9 0.3
v -0.1 1.9 0.3
v 0 1.9 0.3
v 0.1 1.9 0.3
v -0.2 1.9 0.1
v -0.1 1.9 0.1
v 0 1.9 0.1
v 0.1 1.9 0.1
v -0.2 1.9 0
v -0.1 1.9 0
v 0 1.9 0
v 0.1 1.9 0
v -0.2 1.9 -0.1
v -0.1 1.9 -0.1
v 0 1.9 -0.1
v 0.1 1.9 -0.1
v -0.2 1.9 -0.2
v -0.1 1.9 -0.2
v 0 1.9 -0.2
v 0.1 1.9 -0.2
v -0.1 1.9 -0.3
v 0 1.9 -0.3
v -0.2 1.9 -0.4
v -0.1 1.9 -0.4
v 0 1.9 -0.4
v 0.1 1.9 -0.4
v -0.1 2.1 0.4
v 0 2.1 0.4
v -0.1 2.1 0.3
v 0 2.1 0.3
v -0.1 2.1 -0.3
v 0 2.1 -0.3
v -0.1 2.1 -0.4
v 0 2.1 -0.4
v -0.1 2.2 0.3
v 0 2.2 0.3
v -0.1 2.2 0.2
v 0 2.2 0.2
v -0.1 2.2 0.1
v 0 2.2 0.1
v -0.1 2.2 -0.1
v 0 2.2 -0.1
v -0.1 2.2 -0.2
v 0 2.2 -0.2
v -0.1 2.2 -0.3
v 0 2.2 -0.3
v -0.1 2.3 0.2
v 0 2.3 0.2
v -0.1 2.3 0.1
v 0 2.3 0.1
v -0.1 2.3 -0.1
v 0 2.3 -0.1
v -0.1 2.3 -0.2
v 0 2.3 -0.2

# faces
f 6/2/1 2/2/1 1/2/1
f 7/3/1 3/3/1 2/3/1
f 7/2/1 2/2/1 6/2/1
f 8/2/1 4/2/1 3/2/1
f 8/3/1 3/3/1 7/3/1
f 9/3/1 5/3/1 4/3/1
f 9/2/1 4/2/1 8/2/1
f 10/3/1 5/3/1 9/3/1
f 18/2/1 12/2/1 11/2/1
f 19/3/1 13/3/1 12/3/1
f 19/2/1 12/2/1 18/2/1
f 20/1/1 14/1/1 13/1/1
f 20/3/1 13/3/1 19/3/1
f 21/3/1 15/3/1 14/3/1
f 21/1/1 14/1/1 20/1/1
f 22/2/1 16/2/1 15/2/1
f 22/3/1 15/3/1 21/3/1
f 23/3/1 17/3/1 16/3/1
f 23/2/1 16/2/1 22/2/1
f 24/3/1 17/3/1 23/3/1
f 31/3/1 26/3/1 25/3/1
f 32/3/1 26/3/1 31/3/1
f 33/3/1 28/3/1 27/3/1
f 34/3/1 28/3/1 33/3/1
f 35/3/1 28/3/1 34/3/1
f 36/3/1 30/3/1 29/3/1
f 37/3/1 30/3/1 36/3/1
f 45/3/1 39/3/1 38/3/1
f 46/3/1 39/3/1 45/3/1
f 49/3/1 44/3/1 43/3/1
f 50/3/1 44/3/1 49/3/1
f 51/3/1 47/3/1 46/3/1
f 52/3/1 47/3/1 51/3/1
f 53/3/1 41/3/1 40/3/1
f 53/3/1 42/3/1 41/3/1
f 54/3/1 42/3/1 53/3/1
f 55/3/1 49/3/1 48/3/1
f 56/3/1 49/3/1 55/3/1
f 57/3/1 53/3/1 52/3/1
f 58/3/1 53/3/1 57/3/1
f 59/3/1 55/3/1 54/3/1
f 60/3/1 55/3/1 59/3/1
f 61/3/2 62/3/2 67/3/2
f 67/3/2 62/3/2 68/3/2
f 63/3/2 64/3/2 69/3/2
f 69/3/2 64/3/2 70/3/2
f 70/3/2 64/3/2 71/3/2
f 65/3/2 66/3/2 72/3/2
f 72/3/2 66/3/2 73/3/2
f 74/3/2 75/3/2 81/3/2
f 81/3/2 75/3/2 82/3/2
f 79/3/2 80/3/2 85/3/2
f 85/3/2 80/3/2 86/3/2
f 82/3/2 83/3/2 87/3/2
f 87/3/2 83/3/2 88/3/2
f 76/3/2 77/3/2 89/3/2
f 77/3/2 78/3/2 89/3/2
f 89/3/2 78/3/2 90/3/2
f 84/3/2 85/3/2 91/3/2
f 91/3/2 85/3/2 92/3/2
f 88/3/2 89/3/2 93/3/2
f 93/3/2 89/3/2 94/3/2
f 90/3/2 91/3/2 95/3/2
f 95/3/2 91/3/2 96/3/2
f 97/2/2 98/2/2 102/2/2
f 98/3/2 99/3/2 103/3/2
f 102/2/2 98/2/2 103/2/2
f 99/2/2 100/2/2 104/2/2
f 103/3/2 99/3/2 104/3/2
f 100/3/2 101/3/2 105/3/2
f 104/2/2 100/2/2 105/2/2
f 105/3/2 101/3/2 106/3/2
f 107/2/2 108/2/2 114/2/2
f 108/3/2 109/3/2 115/3/2
f 114/2/2 108/2/2 115/2/2
f 109/1/2 110/1/2 116/1/2
f 115/3/2 109/3/2 116/3/2
f 110/3/2 111/3/2 117/3/2
f 116/1/2 110/1/2 117/1/2
f 111/2/2 112/2/2 118/2/2
f 117/3/2 111/3/2 118/3/2
f 112/3/2 113/3/2 119/3/2
f 118/2/2 112/2/2 119/2/2
f 119/3/2 113/3/2 120/3/2
f 125/2/3 122/2/3 121/2/3
f 126/2/3 122/2/3 125/2/3
f 127/2/3 124/2/3 123/2/3
f 128/2/3 124/2/3 127/2/3
f 130/1/3 126/1/3 125/1/3
f 131/3/3 127/3/3 126/3/3
f 131/1/3 126/1/3 130/1/3
f 132/1/3 128/1/3 127/1/3
f 132/3/3 127/3/3 131/3/3
f 133/3/3 129/3/3 128/3/3
f 133/1/3 128/1/3 132/1/3
f 134/3/3 129/3/3 133/3/3
f 135/2/3 131/2/3 130/2/3
f 136/2/3 131/2/3 135/2/3
f 137/2/3 133/2/3 132/2/3
f 138/2/3 133/2/3 137/2/3
f 141/3/3 140/3/3 139/3/3
f 142/3/3 140/3/3 141/3/3
f 145/3/3 144/3/3 143/3/3
f 146/3/3 144/3/3 145/3/3
f 151/3/3 148/3/3 147/3/3
f 152/3/3 148/3/3 151/3/3
f 153/3/3 150/3/3 149/3/3
f 154/3/3 150/3/3 153/3/3
f 157/3/3 156/3/3 155/3/3
f 158/3/3 156/3/3 157/3/3
f 161/3/3 160/3/3 159/3/3
f 162/3/3 160/3/3 161/3/3
f 167/3/3 164/3/3 163/3/3
f 168/3/3 164/3/3 167/3/3
f 169/3/3 166/3/3 165/3/3
f 170/3/3 166/3/3 169/3/3
f 171/3/4 172/3/4 175/3/4
f 175/3/4 172/3/4 176/3/4
f 173/3/4 174/3/4 177/3/4
f 177/3/4 174/3/4 178/3/4
f 179/3/4 180/3/4 181/3/4
f 181/3/4 180/3/4 182/3/4
f 183/3/4 184/3/4 185/3/4
f 185/3/4 184/3/4 186/3/4
f 187/3/4 188/3/4 191/3/4
f 191/3/4 188/3/4 192/3/4
f 189/3/4 190/3/4 193/3/4
f 193/3/4 190/3/4 194/3/4
f 195/3/4 196/3/4 197/3/4
f 197/3/4 196/3/4 198/3/4
f 199/3/4 200/3/4 201/3/4
f 201/3/4 200/3/4 202/3/4
f 203/3/4 204/3/4 207/3/4
f 205/3/4 206/3/4 208/3/4
f 208/3/4 206/3/4 209/3/4
f 203/3/4 207/3/4 211/3/4
f 209/3/4 210/3/4 211/3/4
f 208/3/4 209/3/4 211/3/4
f 207/3/4 208/3/4 211/3/4
f 211/3/4 210/3/4 212/3/4
f 212/3/4 210/3/4 213/3/4
f 213/3/4 210/3/4 214/3/4
f 203/3/4 211/3/4 215/3/4
f 215/3/4 211/3/4 216/3/4
f 212/3/4 213/3/4 217/3/4
f 217/3/4 213/3/4 218/3/4
f 223/2/5 220/2/5 219/2/5
f 224/1/5 221/1/5 220/1/5
f 224/2/5 220/2/5 223/2/5
f 225/2/5 222/2/5 221/2/5
f 225/1/5 221/1/5 224/1/5
f 226/2/5 222/2/5 225/2/5
f 227/3/5 224/3/5 223/3/5
f 227/3/5 225/3/5 224/3/5
f 227/3/5 226/3/5 225/3/5
f 228/3/5 226/3/5 227/3/5
f 229/3/5 226/3/5 228/3/5
f 230/3/5 226/3/5 229/3/5
f 231/2/5 228/2/5 227/2/5
f 232/3/5 229/3/5 228/3/5
f 232/2/5 228/2/5 231/2/5
f 233/2/5 230/2/5 229/2/5
f 233/3/5 229/3/5 232/3/5
f 234/2/5 230/2/5 233/2/5
f 235/3/5 232/3/5 231/3/5
f 235/3/5 233/3/5 232/3/5
f 235/3/5 234/3/5 233/3/5
f 236/3/5 234/3/5 235/3/5
f 241/2/5 238/2/5 237/2/5
f 242/2/5 238/2/5 241/2/5
f 243/2/5 240/2/5 239/2/5
f 244/2/5 240/2/5 243/2/5
f 245/3/5 242/3/5 241/3/5
f 245/3/5 243/3/5 242/3/5
f 245/3/5 244/3/5 243/3/5
f 246/3/5 244/3/5 245/3/5
f 247/3/5 244/3/5 246/3/5
f 248/3/5 244/3/5 247/3/5
f 249/1/5 246/1/5 245/1/5
f 250/1/5 246/1/5 249/1/5
f 251/1/5 248/1/5 247/1/5
f 252/1/5 248/1/5 251/1/5
f 253/3/5 250/3/5 249/3/5
f 254/3/5 250/3/5 253/3/5
f 255/3/5 252/3/5 251/3/5
f 256/3/5 252/3/5 255/3/5
f 257/2/5 254/2/5 253/2/5
f 258/3/5 255/3/5 254/3/5
f 258/2/5 254/2/5 257/2/5
f 259/2/5 256/2/5 255/2/5
f 259/3/5 255/3/5 258/3/5
f 260/2/5 256/2/5 259/2/5
f 261/3/5 258/3/5 257/3/5
f 261/3/5 259/3/5 258/3/5
f 261/3/5 260/3/5 259/3/5
f 262/3/5 260/3/5 261/3/5
f 263/3/5 261/3/5 257/3/5
f 264/3/5 261/3/5 263/3/5
f 265/3/5 260/3/5 262/3/5
f 266/3/5 260/3/5 265/3/5
f 269/3/5 268/3/5 267/3/5
f 270/3/5 268/3/5 269/3/5
f 273/3/5 272/3/5 271/3/5
f 274/3/5 272/3/5 273/3/5
f 277/3/5 276/3/5 275/3/5
f 278/3/5 276/3/5 277/3/5
f 281/3/5 280/3/5 279/3/5
f 282/3/5 280/3/5 281/3/5
f 283/2/6 284/2/6 287/2/6
f 287/2/6 284/2/6 288/2/6
f 285/2/6 286/2/6 289/2/6
f 289/2/6 286/2/6 290/2/6
f 287/3/6 288/3/6 291/3/6
f 288/3/6 289/3/6 291/3/6
f 289/3/6 290/3/6 291/3/6
f 291/3/6 290/3/6 292/3/6
f 287/3/6 291/3/6 293/3/6
f 293/3/6 291/3/6 294/3/6
f 292/3/6 290/3/6 295/3/6
f 295/3/6 290/3/6 296/3/6
f 293/2/6 294/2/6 297/2/6
f 294/3/6 295/3/6 298/3/6
f 297/2/6 294/2/6 298/2/6
f 295/2/6 296/2/6 299/2/6
f 298/3/6 295/3/6 299/3/6
f 299/2/6 296/2/6 300/2/6
f 297/3/6 298/3/6 301/3/6
f 298/3/6 299/3/6 301/3/6
f 299/3/6 300/3/6 301/3/6
f 301/3/6 300/3/6 302/3/6
f 297/3/6 301/3/6 303/3/6
f 303/3/6 301/3/6 304/3/6
f 302/3/6 300/3/6 305/3/6
f 305/3/6 300/3/6 306/3/6
f 307/2/6 308/2/6 311/2/6
f 311/2/6 308/2/6 312/2/6
f 309/2/6 310/2/6 313/2/6
f 313/2/6 310/2/6 314/2/6
f 311/3/6 312/3/6 315/3/6
f 312/3/6 313/3/6 315/3/6
f 313/3/6 314/3/6 315/3/6
f 315/3/6 314/3/6 316/3/6
f 316/3/6 314/3/6 317/3/6
f 317/3/6 314/3/6 318/3/6
f 315/1/6 316/1/6 319/1/6
f 319/1/6 316/1/6 320/1/6
f 317/1/6 318/1/6 321/1/6
f 321/1/6 318/1/6 322/1/6
f 319/3/6 320/3/6 323/3/6
f 323/3/6 320/3/6 324/3/6
f 321/3/6 322/3/6 325/3/6
f 325/3/6 322/3/6 326/3/6
f 323/2/6 324/2/6 327/2/6
f 324/3/6 325/3/6 328/3/6
f 327/2/6 324/2/6 328/2/6
f 325/2/6 326/2/6 329/2/6
f 328/3/6 325/3/6 329/3/6
f 329/2/6 326/2/6 330/2/6
f 327/3/6 328/3/6 331/3/6
f 328/3/6 329/3/6 331/3/6
f 329/3/6 330/3/6 331/3/6
f 331/3/6 330/3/6 332/3/6
f 327/3/6 331/3/6 333/3/6
f 333/3/6 331/3/6 334/3/6
f 332/3/6 330/3/6 335/3/6
f 335/3/6 330/3/6 336/3/6
f 337/3/6 338/3/6 339/3/6
f 339/3/6 338/3/6 340/3/6
f 341/3/6 342/3/6 343/3/6
f 343/3/6 342/3/6 344/3/6
f 345/3/6 346/3/6 347/3/6
f 347/3/6 346/3/6 348/3/6
f 349/3/6 350/3/6 351/3/6
f 351/3/6 350/3/6 352/3/6
f 353/3/6 354/3/6 355/3/6
f 355/3/6 354/3/6 356/3/6
f 357/3/6 358/3/6 359/3/6
f 359/3/6 358/3/6 360/3/6
f 361/3/6 362/3/6 363/3/6
f 363/3/6 362/3/6 364/3/6
