# MagicaVoxel @ Ephtracy

# group
o 

# material
mtllib Planks.mtl
usemtl palette

# normals
vn -1 0 0
vn 1 0 0
vn 0 0 1
vn 0 0 -1
vn 0 -1 0
vn 0 1 0

# texcoords
vt 0.00195313 0.5
vt 0.00585938 0.5
vt 0.00976563 0.5
vt 0.0136719 0.5
vt 0.0175781 0.5
vt 0.0214844 0.5
vt 0.306641 0.5

# verts
v -0.4 0 0.4
v -0.4 0 0.3
v -0.4 0 0
v -0.4 0 -0.2
v -0.4 0 -0.3
v -0.4 0 -0.4
v -0.4 0.1 0.4
v -0.4 0.1 0.3
v -0.4 0.1 0.1
v -0.4 0.1 0
v -0.4 0.1 -0.1
v -0.4 0.1 -0.2
v -0.4 0.1 -0.3
v -0.4 0.1 -0.4
v -0.4 0.2 0.3
v -0.4 0.2 0.2
v -0.4 0.2 0.1
v -0.4 0.2 0
v -0.4 0.2 -0.2
v -0.4 0.2 -0.3
v -0.4 0.2 -0.4
v -0.4 0.3 0.4
v -0.4 0.3 0.3
v -0.4 0.3 0.2
v -0.4 0.3 0.1
v -0.4 0.3 -0.2
v -0.4 0.3 -0.3
v -0.4 0.3 -0.4
v -0.4 0.4 0.4
v -0.4 0.4 0.3
v -0.4 0.4 0.2
v -0.4 0.4 0.1
v -0.4 0.4 0
v -0.4 0.4 -0.1
v -0.4 0.4 -0.2
v -0.4 0.4 -0.3
v -0.4 0.4 -0.4
v -0.4 0.5 0.4
v -0.4 0.5 0.3
v -0.4 0.5 0.2
v -0.4 0.5 0
v -0.4 0.5 -0.1
v -0.4 0.5 -0.2
v -0.4 0.5 -0.3
v -0.4 0.5 -0.4
v -0.4 0.6 0.3
v -0.4 0.6 0.2
v -0.4 0.6 0.1
v -0.4 0.6 0
v -0.4 0.6 -0.1
v -0.4 0.6 -0.2
v -0.4 0.6 -0.3
v -0.4 0.6 -0.4
v -0.4 0.7 0.4
v -0.4 0.7 0.3
v -0.4 0.7 0.1
v -0.4 0.7 -0.1
v -0.4 0.7 -0.2
v -0.4 0.7 -0.3
v -0.4 0.7 -0.4
v -0.4 0.8 0.4
v -0.4 0.8 0.3
v -0.4 0.8 0
v -0.4 0.8 -0.1
v -0.4 0.8 -0.2
v -0.4 0.8 -0.3
v -0.4 0.8 -0.4
v 0.4 0 0.4
v 0.4 0 0.2
v 0.4 0 0.1
v 0.4 0 -0.1
v 0.4 0 -0.3
v 0.4 0 -0.4
v 0.4 0.1 0.4
v 0.4 0.1 0.3
v 0.4 0.1 0.2
v 0.4 0.1 0.1
v 0.4 0.1 -0.1
v 0.4 0.1 -0.2
v 0.4 0.1 -0.3
v 0.4 0.1 -0.4
v 0.4 0.2 0.4
v 0.4 0.2 0.3
v 0.4 0.2 0.2
v 0.4 0.2 0.1
v 0.4 0.2 -0.1
v 0.4 0.2 -0.2
v 0.4 0.2 -0.3
v 0.4 0.2 -0.4
v 0.4 0.3 0.4
v 0.4 0.3 0.3
v 0.4 0.3 0.2
v 0.4 0.3 0
v 0.4 0.3 -0.2
v 0.4 0.3 -0.3
v 0.4 0.3 -0.4
v 0.4 0.4 0.4
v 0.4 0.4 0.3
v 0.4 0.4 0.2
v 0.4 0.4 0.1
v 0.4 0.4 0
v 0.4 0.4 -0.2
v 0.4 0.4 -0.3
v 0.4 0.4 -0.4
v 0.4 0.5 0.4
v 0.4 0.5 0.3
v 0.4 0.5 0.1
v 0.4 0.5 0
v 0.4 0.5 -0.1
v 0.4 0.5 -0.2
v 0.4 0.5 -0.3
v 0.4 0.6 0.1
v 0.4 0.6 0
v 0.4 0.6 -0.1
v 0.4 0.6 -0.2
v 0.4 0.6 -0.3
v 0.4 0.6 -0.4
v 0.4 0.7 0.4
v 0.4 0.7 0.3
v 0.4 0.7 0.2
v 0.4 0.7 0.1
v 0.4 0.7 0
v 0.4 0.7 -0.1
v 0.4 0.7 -0.2
v 0.4 0.8 0.4
v 0.4 0.8 0.3
v 0.4 0.8 0.2
v 0.4 0.8 0
v 0.4 0.8 -0.1
v 0.4 0.8 -0.2
v 0.4 0.8 -0.3
v 0.4 0.8 -0.4
v -0.4 0 0.4
v -0.4 0.1 0.4
v -0.4 0.3 0.4
v -0.4 0.4 0.4
v -0.4 0.5 0.4
v -0.4 0.7 0.4
v -0.4 0.8 0.4
v -0.3 0.1 0.4
v -0.3 0.2 0.4
v -0.3 0.3 0.4
v -0.3 0.4 0.4
v -0.3 0.5 0.4
v -0.3 0.7 0.4
v -0.3 0.8 0.4
v -0.2 0 0.4
v -0.2 0.1 0.4
v -0.2 0.2 0.4
v -0.2 0.4 0.4
v -0.2 0.5 0.4
v -0.2 0.6 0.4
v -0.2 0.7 0.4
v -0.2 0.8 0.4
v -0.1 0.1 0.4
v -0.1 0.2 0.4
v -0.1 0.3 0.4
v -0.1 0.4 0.4
v -0.1 0.5 0.4
v -0.1 0.6 0.4
v -0.1 0.7 0.4
v -0.1 0.8 0.4
v 0 0 0.4
v 0 0.1 0.4
v 0 0.2 0.4
v 0 0.4 0.4
v 0 0.5 0.4
v 0 0.6 0.4
v 0 0.7 0.4
v 0 0.8 0.4
v 0.1 0.1 0.4
v 0.1 0.2 0.4
v 0.1 0.3 0.4
v 0.1 0.4 0.4
v 0.1 0.5 0.4
v 0.1 0.6 0.4
v 0.2 0 0.4
v 0.2 0.1 0.4
v 0.2 0.2 0.4
v 0.2 0.3 0.4
v 0.2 0.4 0.4
v 0.2 0.5 0.4
v 0.2 0.6 0.4
v 0.2 0.7 0.4
v 0.2 0.8 0.4
v 0.3 0 0.4
v 0.3 0.1 0.4
v 0.3 0.2 0.4
v 0.3 0.3 0.4
v 0.3 0.4 0.4
v 0.3 0.5 0.4
v 0.3 0.7 0.4
v 0.3 0.8 0.4
v 0.4 0 0.4
v 0.4 0.1 0.4
v 0.4 0.2 0.4
v 0.4 0.3 0.4
v 0.4 0.4 0.4
v 0.4 0.5 0.4
v 0.4 0.7 0.4
v 0.4 0.8 0.4
v -0.4 0 -0.4
v -0.4 0.1 -0.4
v -0.4 0.2 -0.4
v -0.4 0.3 -0.4
v -0.4 0.4 -0.4
v -0.4 0.5 -0.4
v -0.4 0.6 -0.4
v -0.4 0.7 -0.4
v -0.4 0.8 -0.4
v -0.3 0.1 -0.4
v -0.3 0.2 -0.4
v -0.3 0.3 -0.4
v -0.3 0.4 -0.4
v -0.3 0.5 -0.4
v -0.3 0.6 -0.4
v -0.3 0.7 -0.4
v -0.3 0.8 -0.4
v -0.2 0 -0.4
v -0.2 0.1 -0.4
v -0.2 0.2 -0.4
v -0.2 0.3 -0.4
v -0.2 0.4 -0.4
v -0.2 0.5 -0.4
v -0.2 0.6 -0.4
v -0.2 0.8 -0.4
v -0.1 0 -0.4
v -0.1 0.1 -0.4
v -0.1 0.3 -0.4
v -0.1 0.4 -0.4
v -0.1 0.5 -0.4
v -0.1 0.6 -0.4
v -0.1 0.7 -0.4
v -0.1 0.8 -0.4
v 0 0.2 -0.4
v 0 0.3 -0.4
v 0 0.4 -0.4
v 0 0.5 -0.4
v 0 0.6 -0.4
v 0 0.7 -0.4
v 0.1 0 -0.4
v 0.1 0.1 -0.4
v 0.1 0.2 -0.4
v 0.1 0.3 -0.4
v 0.1 0.4 -0.4
v 0.1 0.6 -0.4
v 0.1 0.8 -0.4
v 0.2 0.1 -0.4
v 0.2 0.2 -0.4
v 0.2 0.5 -0.4
v 0.2 0.7 -0.4
v 0.3 0 -0.4
v 0.3 0.1 -0.4
v 0.3 0.2 -0.4
v 0.3 0.3 -0.4
v 0.3 0.4 -0.4
v 0.3 0.5 -0.4
v 0.3 0.6 -0.4
v 0.3 0.7 -0.4
v 0.3 0.8 -0.4
v 0.4 0 -0.4
v 0.4 0.1 -0.4
v 0.4 0.2 -0.4
v 0.4 0.3 -0.4
v 0.4 0.4 -0.4
v 0.4 0.6 -0.4
v 0.4 0.8 -0.4
v -0.4 0 0.4
v -0.2 0 0.4
v 0 0 0.4
v 0.2 0 0.4
v 0.3 0 0.4
v 0.4 0 0.4
v -0.4 0 0.3
v -0.3 0 0.3
v -0.1 0 0.3
v 0 0 0.3
v 0.2 0 0.3
v 0.3 0 0.3
v -0.2 0 0.2
v -0.1 0 0.2
v 0.1 0 0.2
v 0.2 0 0.2
v 0.3 0 0.2
v 0.4 0 0.2
v 0.1 0 0.1
v 0.2 0 0.1
v 0.3 0 0.1
v 0.4 0 0.1
v -0.4 0 0
v -0.3 0 0
v -0.1 0 0
v 0 0 0
v 0.2 0 0
v 0.3 0 0
v -0.1 0 -0.1
v 0 0 -0.1
v 0.1 0 -0.1
v 0.2 0 -0.1
v 0.3 0 -0.1
v 0.4 0 -0.1
v -0.4 0 -0.2
v -0.3 0 -0.2
v 0 0 -0.2
v 0.1 0 -0.2
v -0.4 0 -0.3
v -0.3 0 -0.3
v -0.2 0 -0.3
v -0.1 0 -0.3
v 0.1 0 -0.3
v 0.3 0 -0.3
v 0.4 0 -0.3
v -0.4 0 -0.4
v -0.2 0 -0.4
v -0.1 0 -0.4
v 0.1 0 -0.4
v 0.3 0 -0.4
v 0.4 0 -0.4
v -0.4 0.8 0.4
v -0.3 0.8 0.4
v -0.2 0.8 0.4
v -0.1 0.8 0.4
v 0 0.8 0.4
v 0.2 0.8 0.4
v 0.3 0.8 0.4
v 0.4 0.8 0.4
v -0.4 0.8 0.3
v -0.3 0.8 0.3
v -0.2 0.8 0.3
v -0.1 0.8 0.3
v 0 0.8 0.3
v 0.2 0.8 0.3
v 0.3 0.8 0.3
v 0.4 0.8 0.3
v -0.3 0.8 0.2
v -0.1 0.8 0.2
v 0 0.8 0.2
v 0.1 0.8 0.2
v 0.3 0.8 0.2
v 0.4 0.8 0.2
v -0.3 0.8 0.1
v -0.1 0.8 0.1
v 0 0.8 0.1
v 0.1 0.8 0.1
v 0.2 0.8 0.1
v -0.4 0.8 0
v -0.3 0.8 0
v -0.2 0.8 0
v -0.1 0.8 0
v 0 0.8 0
v 0.2 0.8 0
v 0.3 0.8 0
v 0.4 0.8 0
v -0.4 0.8 -0.1
v -0.3 0.8 -0.1
v -0.2 0.8 -0.1
v 0 0.8 -0.1
v 0.1 0.8 -0.1
v 0.2 0.8 -0.1
v 0.4 0.8 -0.1
v -0.4 0.8 -0.2
v -0.3 0.8 -0.2
v -0.2 0.8 -0.2
v -0.1 0.8 -0.2
v 0 0.8 -0.2
v 0.1 0.8 -0.2
v 0.2 0.8 -0.2
v 0.4 0.8 -0.2
v -0.4 0.8 -0.3
v -0.3 0.8 -0.3
v -0.2 0.8 -0.3
v -0.1 0.8 -0.3
v 0 0.8 -0.3
v 0.1 0.8 -0.3
v 0.3 0.8 -0.3
v 0.4 0.8 -0.3
v -0.4 0.8 -0.4
v -0.3 0.8 -0.4
v -0.2 0.8 -0.4
v -0.1 0.8 -0.4
v 0.1 0.8 -0.4
v 0.3 0.8 -0.4
v 0.4 0.8 -0.4

# faces
f 7/1/1 2/1/1 1/1/1
f 8/2/1 3/2/1 2/2/1
f 8/1/1 2/1/1 7/1/1
f 9/2/1 3/2/1 8/2/1
f 10/1/1 4/1/1 3/1/1
f 10/2/1 3/2/1 9/2/1
f 11/1/1 4/1/1 10/1/1
f 12/2/1 5/2/1 4/2/1
f 12/1/1 4/1/1 11/1/1
f 13/1/1 6/1/1 5/1/1
f 13/2/1 5/2/1 12/2/1
f 14/1/1 6/1/1 13/1/1
f 15/3/1 9/3/1 8/3/1
f 15/5/1 8/5/1 7/5/1
f 16/3/1 9/3/1 15/3/1
f 17/4/1 11/4/1 10/4/1
f 17/3/1 9/3/1 16/3/1
f 17/4/1 10/4/1 9/4/1
f 18/4/1 11/4/1 17/4/1
f 19/3/1 12/3/1 11/3/1
f 19/2/1 13/2/1 12/2/1
f 20/5/1 14/5/1 13/5/1
f 20/2/1 13/2/1 19/2/1
f 21/5/1 14/5/1 20/5/1
f 22/5/1 15/5/1 7/5/1
f 23/4/1 16/4/1 15/4/1
f 23/5/1 15/5/1 22/5/1
f 24/3/1 18/3/1 17/3/1
f 24/4/1 16/4/1 23/4/1
f 24/3/1 17/3/1 16/3/1
f 25/3/1 18/3/1 24/3/1
f 26/3/1 19/3/1 11/3/1
f 26/4/1 20/4/1 19/4/1
f 27/6/1 21/6/1 20/6/1
f 27/4/1 20/4/1 26/4/1
f 28/6/1 21/6/1 27/6/1
f 29/6/1 23/6/1 22/6/1
f 30/3/1 24/3/1 23/3/1
f 30/6/1 23/6/1 29/6/1
f 31/1/1 25/1/1 24/1/1
f 31/3/1 24/3/1 30/3/1
f 32/3/1 18/3/1 25/3/1
f 32/1/1 25/1/1 31/1/1
f 33/4/1 11/4/1 18/4/1
f 33/3/1 18/3/1 32/3/1
f 34/3/1 26/3/1 11/3/1
f 34/4/1 11/4/1 33/4/1
f 34/3/1 27/3/1 26/3/1
f 35/3/1 27/3/1 34/3/1
f 36/5/1 28/5/1 27/5/1
f 36/3/1 27/3/1 35/3/1
f 37/5/1 28/5/1 36/5/1
f 38/1/1 30/1/1 29/1/1
f 39/2/1 31/2/1 30/2/1
f 39/1/1 30/1/1 38/1/1
f 40/1/1 32/1/1 31/1/1
f 40/2/1 31/2/1 39/2/1
f 40/1/1 33/1/1 32/1/1
f 41/2/1 35/2/1 34/2/1
f 41/1/1 33/1/1 40/1/1
f 41/2/1 34/2/1 33/2/1
f 42/2/1 35/2/1 41/2/1
f 43/1/1 37/1/1 36/1/1
f 43/2/1 35/2/1 42/2/1
f 43/1/1 36/1/1 35/1/1
f 44/1/1 37/1/1 43/1/1
f 45/1/1 37/1/1 44/1/1
f 46/6/1 39/6/1 38/6/1
f 46/3/1 40/3/1 39/3/1
f 47/4/1 42/4/1 41/4/1
f 47/3/1 40/3/1 46/3/1
f 47/4/1 41/4/1 40/4/1
f 48/4/1 42/4/1 47/4/1
f 49/4/1 42/4/1 48/4/1
f 50/2/1 43/2/1 42/2/1
f 50/4/1 42/4/1 49/4/1
f 51/3/1 44/3/1 43/3/1
f 51/2/1 43/2/1 50/2/1
f 52/5/1 45/5/1 44/5/1
f 52/3/1 44/3/1 51/3/1
f 53/5/1 45/5/1 52/5/1
f 54/6/1 46/6/1 38/6/1
f 55/4/1 47/4/1 46/4/1
f 55/6/1 46/6/1 54/6/1
f 55/4/1 48/4/1 47/4/1
f 56/3/1 49/3/1 48/3/1
f 56/4/1 48/4/1 55/4/1
f 57/4/1 51/4/1 50/4/1
f 57/4/1 50/4/1 49/4/1
f 58/3/1 52/3/1 51/3/1
f 58/4/1 51/4/1 57/4/1
f 59/6/1 53/6/1 52/6/1
f 59/3/1 52/3/1 58/3/1
f 60/6/1 53/6/1 59/6/1
f 61/2/1 55/2/1 54/2/1
f 62/3/1 56/3/1 55/3/1
f 62/2/1 55/2/1 61/2/1
f 63/3/1 49/3/1 56/3/1
f 63/3/1 56/3/1 62/3/1
f 63/4/1 57/4/1 49/4/1
f 64/3/1 58/3/1 57/3/1
f 64/4/1 57/4/1 63/4/1
f 65/4/1 59/4/1 58/4/1
f 65/3/1 58/3/1 64/3/1
f 66/1/1 60/1/1 59/1/1
f 66/4/1 59/4/1 65/4/1
f 67/1/1 60/1/1 66/1/1
f 68/1/2 69/1/2 74/1/2
f 74/1/2 69/1/2 75/1/2
f 69/2/2 70/2/2 76/2/2
f 75/1/2 69/1/2 76/1/2
f 70/1/2 71/1/2 77/1/2
f 76/2/2 70/2/2 77/2/2
f 71/2/2 72/2/2 78/2/2
f 77/1/2 71/1/2 78/1/2
f 78/2/2 72/2/2 79/2/2
f 72/1/2 73/1/2 80/1/2
f 79/2/2 72/2/2 80/2/2
f 80/1/2 73/1/2 81/1/2
f 74/5/2 75/5/2 82/5/2
f 75/3/2 76/3/2 83/3/2
f 82/5/2 75/5/2 83/5/2
f 76/4/2 77/4/2 84/4/2
f 83/3/2 76/3/2 84/3/2
f 77/4/2 78/4/2 84/4/2
f 84/4/2 78/4/2 85/4/2
f 78/3/2 79/3/2 86/3/2
f 85/4/2 78/4/2 86/4/2
f 79/4/2 80/4/2 87/4/2
f 86/3/2 79/3/2 87/3/2
f 80/6/2 81/6/2 88/6/2
f 87/4/2 80/4/2 88/4/2
f 88/6/2 81/6/2 89/6/2
f 82/6/2 83/6/2 90/6/2
f 84/4/2 85/4/2 91/4/2
f 90/6/2 83/6/2 91/6/2
f 83/4/2 84/4/2 91/4/2
f 91/4/2 85/4/2 92/4/2
f 86/3/2 87/3/2 93/3/2
f 85/3/2 86/3/2 93/3/2
f 87/3/2 88/3/2 93/3/2
f 93/3/2 88/3/2 94/3/2
f 88/5/2 89/5/2 95/5/2
f 94/3/2 88/3/2 95/3/2
f 95/5/2 89/5/2 96/5/2
f 90/5/2 91/5/2 97/5/2
f 91/2/2 92/2/2 98/2/2
f 97/5/2 91/5/2 98/5/2
f 92/4/2 85/4/2 99/4/2
f 98/2/2 92/2/2 99/2/2
f 85/3/2 93/3/2 100/3/2
f 99/4/2 85/4/2 100/4/2
f 93/4/2 94/4/2 101/4/2
f 100/3/2 93/3/2 101/3/2
f 94/3/2 95/3/2 102/3/2
f 101/4/2 94/4/2 102/4/2
f 95/6/2 96/6/2 103/6/2
f 102/3/2 95/3/2 103/3/2
f 103/6/2 96/6/2 104/6/2
f 97/1/2 98/1/2 105/1/2
f 99/2/2 100/2/2 106/2/2
f 105/1/2 98/1/2 106/1/2
f 98/2/2 99/2/2 106/2/2
f 100/2/2 101/2/2 106/2/2
f 106/2/2 101/2/2 107/2/2
f 101/1/2 102/1/2 108/1/2
f 107/2/2 101/2/2 108/2/2
f 108/1/2 102/1/2 109/1/2
f 102/2/2 103/2/2 110/2/2
f 109/1/2 102/1/2 110/1/2
f 103/1/2 104/1/2 111/1/2
f 110/2/2 103/2/2 111/2/2
f 106/3/2 107/3/2 112/3/2
f 107/2/2 108/2/2 112/2/2
f 108/4/2 109/4/2 113/4/2
f 112/2/2 108/2/2 113/2/2
f 109/3/2 110/3/2 114/3/2
f 113/4/2 109/4/2 114/4/2
f 110/4/2 111/4/2 115/4/2
f 114/3/2 110/3/2 115/3/2
f 111/1/2 104/1/2 116/1/2
f 115/4/2 111/4/2 116/4/2
f 116/1/2 104/1/2 117/1/2
f 105/6/2 106/6/2 118/6/2
f 106/3/2 112/3/2 119/3/2
f 118/6/2 106/6/2 119/6/2
f 119/3/2 112/3/2 120/3/2
f 112/4/2 113/4/2 121/4/2
f 120/3/2 112/3/2 121/3/2
f 114/4/2 115/4/2 121/4/2
f 113/4/2 114/4/2 121/4/2
f 115/4/2 116/4/2 121/4/2
f 121/4/2 116/4/2 122/4/2
f 122/4/2 116/4/2 123/4/2
f 123/4/2 116/4/2 124/4/2
f 118/5/2 119/5/2 125/5/2
f 119/1/2 120/1/2 126/1/2
f 125/5/2 119/5/2 126/5/2
f 120/3/2 121/3/2 127/3/2
f 126/1/2 120/1/2 127/1/2
f 121/3/2 122/3/2 127/3/2
f 122/4/2 123/4/2 128/4/2
f 127/3/2 122/3/2 128/3/2
f 123/3/2 124/3/2 129/3/2
f 128/4/2 123/4/2 129/4/2
f 124/4/2 116/4/2 130/4/2
f 129/3/2 124/3/2 130/3/2
f 116/5/2 117/5/2 131/5/2
f 130/4/2 116/4/2 131/4/2
f 131/5/2 117/5/2 132/5/2
f 140/1/3 134/1/3 133/1/3
f 140/5/3 135/5/3 134/5/3
f 141/5/3 135/5/3 140/5/3
f 142/6/3 136/6/3 135/6/3
f 142/5/3 135/5/3 141/5/3
f 143/1/3 137/1/3 136/1/3
f 143/6/3 136/6/3 142/6/3
f 144/6/3 138/6/3 137/6/3
f 144/1/3 137/1/3 143/1/3
f 145/2/3 139/2/3 138/2/3
f 145/6/3 138/6/3 144/6/3
f 146/2/3 139/2/3 145/2/3
f 147/1/3 140/1/3 133/1/3
f 148/3/3 141/3/3 140/3/3
f 148/1/3 140/1/3 147/1/3
f 149/4/3 142/4/3 141/4/3
f 149/3/3 141/3/3 148/3/3
f 150/2/3 144/2/3 143/2/3
f 150/3/3 143/3/3 142/3/3
f 151/3/3 145/3/3 144/3/3
f 151/2/3 144/2/3 150/2/3
f 152/3/3 145/3/3 151/3/3
f 153/4/3 146/4/3 145/4/3
f 153/3/3 145/3/3 152/3/3
f 154/4/3 146/4/3 153/4/3
f 155/2/3 149/2/3 148/2/3
f 155/2/3 148/2/3 147/2/3
f 156/4/3 142/4/3 149/4/3
f 156/2/3 149/2/3 155/2/3
f 157/3/3 150/3/3 142/3/3
f 157/4/3 142/4/3 156/4/3
f 158/1/3 151/1/3 150/1/3
f 158/3/3 150/3/3 157/3/3
f 159/3/3 152/3/3 151/3/3
f 159/1/3 151/1/3 158/1/3
f 160/4/3 153/4/3 152/4/3
f 160/3/3 152/3/3 159/3/3
f 161/3/3 154/3/3 153/3/3
f 161/4/3 153/4/3 160/4/3
f 162/3/3 154/3/3 161/3/3
f 163/2/3 155/2/3 147/2/3
f 164/4/3 156/4/3 155/4/3
f 164/2/3 155/2/3 163/2/3
f 164/4/3 158/4/3 157/4/3
f 164/4/3 157/4/3 156/4/3
f 165/4/3 158/4/3 164/4/3
f 166/1/3 159/1/3 158/1/3
f 166/4/3 158/4/3 165/4/3
f 167/4/3 160/4/3 159/4/3
f 167/1/3 159/1/3 166/1/3
f 168/3/3 161/3/3 160/3/3
f 168/4/3 160/4/3 167/4/3
f 169/4/3 162/4/3 161/4/3
f 169/3/3 161/3/3 168/3/3
f 170/4/3 162/4/3 169/4/3
f 171/4/3 165/4/3 164/4/3
f 171/1/3 164/1/3 163/1/3
f 172/3/3 166/3/3 165/3/3
f 172/4/3 165/4/3 171/4/3
f 173/3/3 166/3/3 172/3/3
f 174/1/3 168/1/3 167/1/3
f 174/3/3 166/3/3 173/3/3
f 174/1/3 167/1/3 166/1/3
f 175/1/3 168/1/3 174/1/3
f 176/4/3 169/4/3 168/4/3
f 176/1/3 168/1/3 175/1/3
f 177/1/3 171/1/3 163/1/3
f 178/3/3 173/3/3 172/3/3
f 178/1/3 171/1/3 177/1/3
f 178/3/3 172/3/3 171/3/3
f 179/3/3 173/3/3 178/3/3
f 180/4/3 174/4/3 173/4/3
f 180/3/3 173/3/3 179/3/3
f 181/2/3 175/2/3 174/2/3
f 181/4/3 174/4/3 180/4/3
f 182/3/3 176/3/3 175/3/3
f 182/2/3 175/2/3 181/2/3
f 183/4/3 169/4/3 176/4/3
f 183/3/3 176/3/3 182/3/3
f 184/3/3 170/3/3 169/3/3
f 184/4/3 169/4/3 183/4/3
f 185/3/3 170/3/3 184/3/3
f 186/2/3 178/2/3 177/2/3
f 187/3/3 179/3/3 178/3/3
f 187/2/3 178/2/3 186/2/3
f 188/4/3 180/4/3 179/4/3
f 188/3/3 179/3/3 187/3/3
f 189/2/3 182/2/3 181/2/3
f 189/4/3 180/4/3 188/4/3
f 189/2/3 181/2/3 180/2/3
f 190/2/3 182/2/3 189/2/3
f 191/4/3 185/4/3 184/4/3
f 191/2/3 182/2/3 190/2/3
f 191/4/3 183/4/3 182/4/3
f 191/4/3 184/4/3 183/4/3
f 192/4/3 185/4/3 191/4/3
f 193/4/3 185/4/3 192/4/3
f 194/1/3 187/1/3 186/1/3
f 195/5/3 188/5/3 187/5/3
f 195/1/3 187/1/3 194/1/3
f 196/6/3 189/6/3 188/6/3
f 196/5/3 188/5/3 195/5/3
f 197/5/3 190/5/3 189/5/3
f 197/6/3 189/6/3 196/6/3
f 198/1/3 191/1/3 190/1/3
f 198/5/3 190/5/3 197/5/3
f 199/6/3 192/6/3 191/6/3
f 199/1/3 191/1/3 198/1/3
f 200/5/3 193/5/3 192/5/3
f 200/6/3 192/6/3 199/6/3
f 201/5/3 193/5/3 200/5/3
f 202/1/4 203/1/4 211/1/4
f 203/5/4 204/5/4 211/5/4
f 204/6/4 205/6/4 212/6/4
f 211/5/4 204/5/4 212/5/4
f 205/5/4 206/5/4 213/5/4
f 212/6/4 205/6/4 213/6/4
f 206/1/4 207/1/4 214/1/4
f 213/5/4 206/5/4 214/5/4
f 207/5/4 208/5/4 215/5/4
f 214/1/4 207/1/4 215/1/4
f 208/6/4 209/6/4 216/6/4
f 215/5/4 208/5/4 216/5/4
f 209/1/4 210/1/4 217/1/4
f 216/6/4 209/6/4 217/6/4
f 217/1/4 210/1/4 218/1/4
f 202/1/4 211/1/4 219/1/4
f 211/3/4 212/3/4 220/3/4
f 219/1/4 211/1/4 220/1/4
f 212/4/4 213/4/4 221/4/4
f 220/3/4 212/3/4 221/3/4
f 214/2/4 215/2/4 222/2/4
f 221/4/4 213/4/4 222/4/4
f 213/2/4 214/2/4 222/2/4
f 222/2/4 215/2/4 223/2/4
f 215/4/4 216/4/4 224/4/4
f 223/2/4 215/2/4 224/2/4
f 217/3/4 218/3/4 225/3/4
f 224/4/4 216/4/4 225/4/4
f 216/3/4 217/3/4 225/3/4
f 225/3/4 218/3/4 226/3/4
f 219/2/4 220/2/4 227/2/4
f 220/3/4 221/3/4 228/3/4
f 227/2/4 220/2/4 228/2/4
f 221/3/4 222/3/4 228/3/4
f 222/4/4 223/4/4 229/4/4
f 228/3/4 222/3/4 229/3/4
f 223/2/4 224/2/4 230/2/4
f 229/4/4 223/4/4 230/4/4
f 224/3/4 225/3/4 231/3/4
f 230/2/4 224/2/4 231/2/4
f 225/4/4 226/4/4 232/4/4
f 231/3/4 225/3/4 232/3/4
f 232/4/4 226/4/4 233/4/4
f 233/4/4 226/4/4 234/4/4
f 228/4/4 229/4/4 235/4/4
f 229/3/4 230/3/4 236/3/4
f 235/4/4 229/4/4 236/4/4
f 230/1/4 231/1/4 237/1/4
f 236/3/4 230/3/4 237/3/4
f 231/4/4 232/4/4 238/4/4
f 237/1/4 231/1/4 238/1/4
f 232/4/4 233/4/4 238/4/4
f 238/4/4 233/4/4 239/4/4
f 233/3/4 234/3/4 240/3/4
f 239/4/4 233/4/4 240/4/4
f 227/1/4 228/1/4 241/1/4
f 228/4/4 235/4/4 242/4/4
f 241/1/4 228/1/4 242/1/4
f 235/3/4 236/3/4 243/3/4
f 242/4/4 235/4/4 243/4/4
f 236/4/4 237/4/4 244/4/4
f 243/3/4 236/3/4 244/3/4
f 237/2/4 238/2/4 245/2/4
f 244/4/4 237/4/4 245/4/4
f 238/4/4 239/4/4 246/4/4
f 239/3/4 240/3/4 246/3/4
f 240/3/4 234/3/4 247/3/4
f 246/3/4 240/3/4 247/3/4
f 241/2/4 242/2/4 248/2/4
f 242/4/4 243/4/4 248/4/4
f 243/4/4 244/4/4 248/4/4
f 248/4/4 244/4/4 249/4/4
f 238/4/4 246/4/4 250/4/4
f 246/4/4 247/4/4 250/4/4
f 245/2/4 238/2/4 250/2/4
f 250/4/4 247/4/4 251/4/4
f 248/2/4 249/2/4 252/2/4
f 241/2/4 248/2/4 252/2/4
f 252/2/4 249/2/4 253/2/4
f 249/4/4 244/4/4 254/4/4
f 253/2/4 249/2/4 254/2/4
f 244/3/4 245/3/4 255/3/4
f 254/4/4 244/4/4 255/4/4
f 245/2/4 250/2/4 256/2/4
f 255/3/4 245/3/4 256/3/4
f 250/3/4 251/3/4 257/3/4
f 256/2/4 250/2/4 257/2/4
f 257/3/4 251/3/4 258/3/4
f 251/4/4 247/4/4 259/4/4
f 258/3/4 251/3/4 259/3/4
f 259/4/4 247/4/4 260/4/4
f 252/1/4 253/1/4 261/1/4
f 253/6/4 254/6/4 262/6/4
f 261/1/4 253/1/4 262/1/4
f 254/5/4 255/5/4 263/5/4
f 262/6/4 254/6/4 263/6/4
f 255/6/4 256/6/4 264/6/4
f 263/5/4 255/5/4 264/5/4
f 257/1/4 258/1/4 265/1/4
f 264/6/4 256/6/4 265/6/4
f 256/1/4 257/1/4 265/1/4
f 259/5/4 260/5/4 266/5/4
f 265/1/4 258/1/4 266/1/4
f 258/5/4 259/5/4 266/5/4
f 266/5/4 260/5/4 267/5/4
f 274/1/5 269/1/5 268/1/5
f 275/1/5 269/1/5 274/1/5
f 276/2/5 270/2/5 269/2/5
f 277/1/5 271/1/5 270/1/5
f 277/2/5 270/2/5 276/2/5
f 278/2/5 272/2/5 271/2/5
f 278/1/5 271/1/5 277/1/5
f 279/1/5 273/1/5 272/1/5
f 279/2/5 272/2/5 278/2/5
f 280/1/5 269/1/5 275/1/5
f 280/2/5 276/2/5 269/2/5
f 281/1/5 278/1/5 277/1/5
f 281/2/5 276/2/5 280/2/5
f 281/1/5 279/1/5 278/1/5
f 281/1/5 277/1/5 276/1/5
f 282/1/5 279/1/5 281/1/5
f 283/1/5 279/1/5 282/1/5
f 284/1/5 273/1/5 279/1/5
f 284/1/5 279/1/5 283/1/5
f 285/1/5 273/1/5 284/1/5
f 286/2/5 283/2/5 282/2/5
f 286/1/5 281/1/5 280/1/5
f 286/1/5 282/1/5 281/1/5
f 287/1/5 284/1/5 283/1/5
f 287/2/5 283/2/5 286/2/5
f 288/2/5 285/2/5 284/2/5
f 288/1/5 284/1/5 287/1/5
f 289/2/5 285/2/5 288/2/5
f 290/2/5 275/2/5 274/2/5
f 291/1/5 280/1/5 275/1/5
f 291/2/5 275/2/5 290/2/5
f 291/1/5 287/1/5 286/1/5
f 291/1/5 289/1/5 288/1/5
f 291/1/5 288/1/5 287/1/5
f 291/1/5 286/1/5 280/1/5
f 292/1/5 289/1/5 291/1/5
f 293/1/5 289/1/5 292/1/5
f 294/1/5 289/1/5 293/1/5
f 295/1/5 289/1/5 294/1/5
f 296/1/5 291/1/5 290/1/5
f 296/1/5 292/1/5 291/1/5
f 296/2/5 293/2/5 292/2/5
f 297/1/5 294/1/5 293/1/5
f 297/2/5 293/2/5 296/2/5
f 298/1/5 294/1/5 297/1/5
f 299/2/5 295/2/5 294/2/5
f 299/1/5 294/1/5 298/1/5
f 300/1/5 289/1/5 295/1/5
f 300/2/5 295/2/5 299/2/5
f 301/1/5 289/1/5 300/1/5
f 302/1/5 296/1/5 290/1/5
f 302/1/5 297/1/5 296/1/5
f 303/1/5 297/1/5 302/1/5
f 304/2/5 298/2/5 297/2/5
f 304/1/5 297/1/5 303/1/5
f 305/1/5 299/1/5 298/1/5
f 305/2/5 298/2/5 304/2/5
f 305/1/5 300/1/5 299/1/5
f 306/2/5 303/2/5 302/2/5
f 307/1/5 304/1/5 303/1/5
f 307/2/5 303/2/5 306/2/5
f 307/1/5 305/1/5 304/1/5
f 308/1/5 305/1/5 307/1/5
f 309/1/5 305/1/5 308/1/5
f 310/1/5 300/1/5 305/1/5
f 310/1/5 305/1/5 309/1/5
f 311/2/5 301/2/5 300/2/5
f 311/1/5 300/1/5 310/1/5
f 312/2/5 301/2/5 311/2/5
f 313/1/5 307/1/5 306/1/5
f 313/1/5 308/1/5 307/1/5
f 314/2/5 309/2/5 308/2/5
f 314/1/5 308/1/5 313/1/5
f 315/1/5 310/1/5 309/1/5
f 315/2/5 309/2/5 314/2/5
f 316/2/5 311/2/5 310/2/5
f 316/1/5 310/1/5 315/1/5
f 317/1/5 312/1/5 311/1/5
f 317/2/5 311/2/5 316/2/5
f 318/1/5 312/1/5 317/1/5
f 319/2/6 320/2/6 327/2/6
f 320/4/6 321/4/6 328/4/6
f 327/2/6 320/2/6 328/2/6
f 321/3/6 322/3/6 329/3/6
f 328/4/6 321/4/6 329/4/6
f 322/4/6 323/4/6 330/4/6
f 329/3/6 322/3/6 330/3/6
f 323/3/6 324/3/6 331/3/6
f 330/4/6 323/4/6 331/4/6
f 324/4/6 325/4/6 332/4/6
f 331/3/6 324/3/6 332/3/6
f 325/5/6 326/5/6 333/5/6
f 332/4/6 325/4/6 333/4/6
f 333/5/6 326/5/6 334/5/6
f 331/4/6 332/4/6 335/4/6
f 327/3/6 328/3/6 335/3/6
f 328/4/6 329/4/6 335/4/6
f 332/4/6 333/4/6 335/4/6
f 330/4/6 331/4/6 335/4/6
f 329/4/6 330/4/6 335/4/6
f 335/4/6 333/4/6 336/4/6
f 336/4/6 333/4/6 337/4/6
f 337/4/6 333/4/6 338/4/6
f 333/1/6 334/1/6 339/1/6
f 338/4/6 333/4/6 339/4/6
f 339/1/6 334/1/6 340/1/6
f 327/3/6 335/3/6 341/3/6
f 335/3/6 336/3/6 341/3/6
f 336/1/6 337/1/6 342/1/6
f 341/3/6 336/3/6 342/3/6
f 337/3/6 338/3/6 343/3/6
f 342/1/6 337/1/6 343/1/6
f 338/4/6 339/4/6 344/4/6
f 343/3/6 338/3/6 344/3/6
f 344/4/6 339/4/6 345/4/6
f 327/3/6 341/3/6 346/3/6
f 341/4/6 342/4/6 347/4/6
f 346/3/6 341/3/6 347/3/6
f 342/4/6 343/4/6 347/4/6
f 347/4/6 343/4/6 348/4/6
f 348/4/6 343/4/6 349/4/6
f 344/3/6 345/3/6 350/3/6
f 349/4/6 343/4/6 350/4/6
f 343/3/6 344/3/6 350/3/6
f 345/4/6 339/4/6 351/4/6
f 350/3/6 345/3/6 351/3/6
f 339/3/6 340/3/6 352/3/6
f 351/4/6 339/4/6 352/4/6
f 352/3/6 340/3/6 353/3/6
f 347/4/6 348/4/6 354/4/6
f 346/4/6 347/4/6 354/4/6
f 354/4/6 348/4/6 355/4/6
f 348/3/6 349/3/6 356/3/6
f 355/4/6 348/4/6 356/4/6
f 350/4/6 351/4/6 357/4/6
f 349/4/6 350/4/6 357/4/6
f 352/4/6 353/4/6 357/4/6
f 351/4/6 352/4/6 357/4/6
f 357/4/6 353/4/6 358/4/6
f 358/4/6 353/4/6 359/4/6
f 359/4/6 353/4/6 360/4/6
f 354/3/6 355/3/6 361/3/6
f 355/1/6 356/1/6 362/1/6
f 361/3/6 355/3/6 362/3/6
f 356/3/6 349/3/6 363/3/6
f 362/1/6 356/1/6 363/1/6
f 349/4/6 357/4/6 364/4/6
f 363/3/6 349/3/6 364/3/6
f 357/3/6 358/3/6 365/3/6
f 364/4/6 357/4/6 365/4/6
f 358/4/6 359/4/6 366/4/6
f 365/3/6 358/3/6 366/3/6
f 359/3/6 360/3/6 367/3/6
f 366/4/6 359/4/6 367/4/6
f 367/3/6 360/3/6 368/3/6
f 361/4/6 362/4/6 369/4/6
f 362/4/6 363/4/6 369/4/6
f 363/4/6 364/4/6 369/4/6
f 364/4/6 365/4/6 369/4/6
f 369/4/6 365/4/6 370/4/6
f 370/4/6 365/4/6 371/4/6
f 371/4/6 365/4/6 372/4/6
f 365/1/6 366/1/6 373/1/6
f 372/4/6 365/4/6 373/4/6
f 367/4/6 368/4/6 374/4/6
f 373/1/6 366/1/6 374/1/6
f 366/4/6 367/4/6 374/4/6
f 374/4/6 368/4/6 375/4/6
f 375/4/6 368/4/6 376/4/6
f 369/1/6 370/1/6 377/1/6
f 370/3/6 371/3/6 378/3/6
f 377/1/6 370/1/6 378/1/6
f 371/4/6 372/4/6 379/4/6
f 378/3/6 371/3/6 379/3/6
f 372/3/6 373/3/6 380/3/6
f 379/4/6 372/4/6 380/4/6
f 373/3/6 374/3/6 380/3/6
f 374/4/6 375/4/6 381/4/6
f 380/3/6 374/3/6 381/3/6
f 375/5/6 376/5/6 382/5/6
f 381/4/6 375/4/6 382/4/6
f 382/5/6 376/5/6 383/5/6
