# MagicaVoxel @ Ephtracy

# group
o 

# material
mtllib SnowBlock.mtl
usemtl palette

# normals
vn -1 0 0
vn 1 0 0
vn 0 0 1
vn 0 0 -1
vn 0 -1 0
vn 0 1 0

# texcoords
vt 0.00195313 0.5
vt 0.00585938 0.5
vt 0.00976563 0.5
vt 0.0136719 0.5
vt 0.0214844 0.5
vt 0.0253906 0.5
vt 0.0292969 0.5

# verts
v -0.4 0 0.4
v -0.4 0 -0.4
v -0.4 0.1 0.2
v -0.4 0.1 0.1
v -0.4 0.1 0
v -0.4 0.1 -0.1
v -0.4 0.1 -0.2
v -0.4 0.1 -0.3
v -0.4 0.2 0.3
v -0.4 0.2 0.2
v -0.4 0.2 -0.1
v -0.4 0.2 -0.2
v -0.4 0.3 0.4
v -0.4 0.3 0.3
v -0.4 0.3 0.1
v -0.4 0.3 0
v -0.4 0.3 -0.1
v -0.4 0.3 -0.2
v -0.4 0.3 -0.3
v -0.4 0.3 -0.4
v -0.4 0.4 0.3
v -0.4 0.4 0.2
v -0.4 0.4 0.1
v -0.4 0.4 0
v -0.4 0.4 -0.1
v -0.4 0.4 -0.2
v -0.4 0.5 0.4
v -0.4 0.5 0.3
v -0.4 0.5 0.2
v -0.4 0.5 0.1
v -0.4 0.5 0
v -0.4 0.5 -0.1
v -0.4 0.5 -0.2
v -0.4 0.5 -0.3
v -0.4 0.6 0.4
v -0.4 0.6 0.3
v -0.4 0.6 0.2
v -0.4 0.6 0.1
v -0.4 0.6 0
v -0.4 0.6 -0.1
v -0.4 0.6 -0.2
v -0.4 0.6 -0.3
v -0.4 0.6 -0.4
v -0.4 0.7 0.4
v -0.4 0.7 0.3
v -0.4 0.7 0.1
v -0.4 0.7 0
v -0.4 0.7 -0.1
v -0.4 0.7 -0.3
v -0.4 0.7 -0.4
v -0.4 0.8 0.4
v -0.4 0.8 0.3
v -0.4 0.8 0.2
v -0.4 0.8 0
v -0.4 0.8 -0.1
v -0.4 0.8 -0.2
v -0.4 0.8 -0.3
v -0.4 0.8 -0.4
v 0.4 0 0.4
v 0.4 0 -0.4
v 0.4 0.1 0.3
v 0.4 0.1 0.2
v 0.4 0.1 0
v 0.4 0.1 -0.1
v 0.4 0.2 0.4
v 0.4 0.2 0.3
v 0.4 0.2 0.1
v 0.4 0.2 0
v 0.4 0.2 -0.1
v 0.4 0.2 -0.3
v 0.4 0.3 0.4
v 0.4 0.3 0.3
v 0.4 0.3 0.2
v 0.4 0.3 0.1
v 0.4 0.3 0
v 0.4 0.3 -0.2
v 0.4 0.3 -0.3
v 0.4 0.3 -0.4
v 0.4 0.4 0.4
v 0.4 0.4 0.3
v 0.4 0.4 0.2
v 0.4 0.4 0
v 0.4 0.4 -0.2
v 0.4 0.4 -0.3
v 0.4 0.4 -0.4
v 0.4 0.5 0.4
v 0.4 0.5 0.3
v 0.4 0.5 0.2
v 0.4 0.5 0
v 0.4 0.5 -0.1
v 0.4 0.5 -0.2
v 0.4 0.5 -0.3
v 0.4 0.5 -0.4
v 0.4 0.6 0.4
v 0.4 0.6 0.3
v 0.4 0.6 0.2
v 0.4 0.6 0.1
v 0.4 0.6 0
v 0.4 0.6 -0.1
v 0.4 0.6 -0.2
v 0.4 0.6 -0.3
v 0.4 0.6 -0.4
v 0.4 0.7 0.4
v 0.4 0.7 0.3
v 0.4 0.7 0.1
v 0.4 0.7 0
v 0.4 0.7 -0.1
v 0.4 0.7 -0.2
v 0.4 0.7 -0.3
v 0.4 0.7 -0.4
v 0.4 0.8 0.4
v 0.4 0.8 0.3
v 0.4 0.8 0.1
v 0.4 0.8 -0.1
v 0.4 0.8 -0.2
v 0.4 0.8 -0.3
v 0.4 0.8 -0.4
v -0.4 0 0.4
v -0.4 0.3 0.4
v -0.4 0.5 0.4
v -0.4 0.6 0.4
v -0.4 0.7 0.4
v -0.4 0.8 0.4
v -0.3 0.1 0.4
v -0.3 0.3 0.4
v -0.3 0.4 0.4
v -0.3 0.5 0.4
v -0.3 0.6 0.4
v -0.3 0.7 0.4
v -0.3 0.8 0.4
v -0.2 0.1 0.4
v -0.2 0.2 0.4
v -0.2 0.4 0.4
v -0.2 0.6 0.4
v -0.2 0.7 0.4
v -0.1 0.1 0.4
v -0.1 0.2 0.4
v -0.1 0.3 0.4
v -0.1 0.4 0.4
v -0.1 0.5 0.4
v -0.1 0.6 0.4
v -0.1 0.7 0.4
v -0.1 0.8 0.4
v 0 0.1 0.4
v 0 0.2 0.4
v 0 0.5 0.4
v 0 0.6 0.4
v 0 0.7 0.4
v 0 0.8 0.4
v 0.1 0.3 0.4
v 0.1 0.4 0.4
v 0.1 0.5 0.4
v 0.1 0.6 0.4
v 0.1 0.7 0.4
v 0.1 0.8 0.4
v 0.2 0.1 0.4
v 0.2 0.2 0.4
v 0.2 0.3 0.4
v 0.2 0.4 0.4
v 0.2 0.5 0.4
v 0.2 0.6 0.4
v 0.2 0.7 0.4
v 0.2 0.8 0.4
v 0.3 0.1 0.4
v 0.3 0.2 0.4
v 0.3 0.4 0.4
v 0.3 0.5 0.4
v 0.3 0.7 0.4
v 0.3 0.8 0.4
v 0.4 0 0.4
v 0.4 0.2 0.4
v 0.4 0.3 0.4
v 0.4 0.4 0.4
v 0.4 0.5 0.4
v 0.4 0.6 0.4
v 0.4 0.7 0.4
v 0.4 0.8 0.4
v -0.4 0 -0.4
v -0.4 0.3 -0.4
v -0.4 0.6 -0.4
v -0.4 0.7 -0.4
v -0.4 0.8 -0.4
v -0.3 0.2 -0.4
v -0.3 0.3 -0.4
v -0.3 0.4 -0.4
v -0.3 0.5 -0.4
v -0.3 0.6 -0.4
v -0.3 0.7 -0.4
v -0.3 0.8 -0.4
v -0.2 0.1 -0.4
v -0.2 0.2 -0.4
v -0.2 0.3 -0.4
v -0.2 0.4 -0.4
v -0.2 0.5 -0.4
v -0.2 0.6 -0.4
v -0.2 0.7 -0.4
v -0.1 0.1 -0.4
v -0.1 0.2 -0.4
v -0.1 0.4 -0.4
v -0.1 0.6 -0.4
v -0.1 0.7 -0.4
v 0 0.2 -0.4
v 0 0.3 -0.4
v 0 0.4 -0.4
v 0 0.5 -0.4
v 0 0.6 -0.4
v 0 0.7 -0.4
v 0 0.8 -0.4
v 0.1 0.2 -0.4
v 0.1 0.3 -0.4
v 0.1 0.4 -0.4
v 0.1 0.5 -0.4
v 0.1 0.6 -0.4
v 0.1 0.7 -0.4
v 0.1 0.8 -0.4
v 0.2 0.1 -0.4
v 0.2 0.2 -0.4
v 0.2 0.3 -0.4
v 0.2 0.4 -0.4
v 0.2 0.5 -0.4
v 0.2 0.6 -0.4
v 0.2 0.7 -0.4
v 0.3 0.1 -0.4
v 0.3 0.3 -0.4
v 0.3 0.5 -0.4
v 0.3 0.6 -0.4
v 0.3 0.7 -0.4
v 0.3 0.8 -0.4
v 0.4 0 -0.4
v 0.4 0.3 -0.4
v 0.4 0.4 -0.4
v 0.4 0.5 -0.4
v 0.4 0.6 -0.4
v 0.4 0.7 -0.4
v 0.4 0.8 -0.4
v -0.4 0 0.4
v 0.4 0 0.4
v -0.4 0 -0.4
v 0.4 0 -0.4
v -0.4 0.8 0.4
v -0.3 0.8 0.4
v -0.1 0.8 0.4
v 0 0.8 0.4
v 0.1 0.8 0.4
v 0.2 0.8 0.4
v 0.3 0.8 0.4
v 0.4 0.8 0.4
v -0.4 0.8 0.3
v -0.3 0.8 0.3
v -0.1 0.8 0.3
v 0 0.8 0.3
v 0.1 0.8 0.3
v 0.2 0.8 0.3
v 0.3 0.8 0.3
v 0.4 0.8 0.3
v -0.4 0.8 0.2
v -0.3 0.8 0.2
v 0 0.8 0.2
v 0.1 0.8 0.2
v 0.2 0.8 0.2
v 0.3 0.8 0.2
v -0.1 0.8 0.1
v 0 0.8 0.1
v 0.1 0.8 0.1
v 0.2 0.8 0.1
v 0.3 0.8 0.1
v 0.4 0.8 0.1
v -0.4 0.8 0
v -0.3 0.8 0
v -0.2 0.8 0
v -0.1 0.8 0
v 0 0.8 0
v 0.1 0.8 0
v 0.2 0.8 0
v 0.3 0.8 0
v -0.4 0.8 -0.1
v -0.3 0.8 -0.1
v -0.2 0.8 -0.1
v -0.1 0.8 -0.1
v 0.2 0.8 -0.1
v 0.3 0.8 -0.1
v 0.4 0.8 -0.1
v -0.4 0.8 -0.2
v -0.3 0.8 -0.2
v -0.2 0.8 -0.2
v -0.1 0.8 -0.2
v 0 0.8 -0.2
v 0.1 0.8 -0.2
v 0.3 0.8 -0.2
v 0.4 0.8 -0.2
v -0.4 0.8 -0.3
v -0.3 0.8 -0.3
v -0.1 0.8 -0.3
v 0 0.8 -0.3
v 0.1 0.8 -0.3
v 0.2 0.8 -0.3
v 0.3 0.8 -0.3
v 0.4 0.8 -0.3
v -0.4 0.8 -0.4
v -0.3 0.8 -0.4
v 0 0.8 -0.4
v 0.1 0.8 -0.4
v 0.3 0.8 -0.4
v 0.4 0.8 -0.4

# faces
f 3/1/1 2/1/1 1/1/1
f 4/1/1 2/1/1 3/1/1
f 5/1/1 2/1/1 4/1/1
f 6/1/1 2/1/1 5/1/1
f 7/1/1 2/1/1 6/1/1
f 8/1/1 2/1/1 7/1/1
f 9/1/1 3/1/1 1/1/1
f 10/2/1 4/2/1 3/2/1
f 10/1/1 3/1/1 9/1/1
f 11/2/1 6/2/1 5/2/1
f 11/1/1 7/1/1 6/1/1
f 12/2/1 8/2/1 7/2/1
f 12/1/1 7/1/1 11/1/1
f 13/1/1 9/1/1 1/1/1
f 14/2/1 10/2/1 9/2/1
f 14/1/1 9/1/1 13/1/1
f 15/1/1 5/1/1 4/1/1
f 15/2/1 10/2/1 14/2/1
f 15/2/1 4/2/1 10/2/1
f 16/2/1 12/2/1 11/2/1
f 16/1/1 5/1/1 15/1/1
f 16/2/1 11/2/1 5/2/1
f 17/2/1 12/2/1 16/2/1
f 18/2/1 8/2/1 12/2/1
f 18/2/1 12/2/1 17/2/1
f 19/1/1 2/1/1 8/1/1
f 19/2/1 8/2/1 18/2/1
f 20/1/1 2/1/1 19/1/1
f 21/3/1 14/3/1 13/3/1
f 21/2/1 15/2/1 14/2/1
f 22/2/1 15/2/1 21/2/1
f 23/3/1 17/3/1 16/3/1
f 23/2/1 15/2/1 22/2/1
f 23/3/1 16/3/1 15/3/1
f 24/3/1 17/3/1 23/3/1
f 25/2/1 18/2/1 17/2/1
f 25/3/1 17/3/1 24/3/1
f 26/3/1 20/3/1 19/3/1
f 26/2/1 18/2/1 25/2/1
f 26/3/1 19/3/1 18/3/1
f 27/3/1 21/3/1 13/3/1
f 28/4/1 22/4/1 21/4/1
f 28/3/1 21/3/1 27/3/1
f 29/3/1 23/3/1 22/3/1
f 29/4/1 22/4/1 28/4/1
f 30/6/1 24/6/1 23/6/1
f 30/3/1 23/3/1 29/3/1
f 31/3/1 25/3/1 24/3/1
f 31/6/1 24/6/1 30/6/1
f 32/4/1 26/4/1 25/4/1
f 32/3/1 25/3/1 31/3/1
f 33/3/1 20/3/1 26/3/1
f 33/4/1 26/4/1 32/4/1
f 34/3/1 20/3/1 33/3/1
f 35/7/1 28/7/1 27/7/1
f 36/4/1 29/4/1 28/4/1
f 36/7/1 28/7/1 35/7/1
f 37/6/1 30/6/1 29/6/1
f 37/4/1 29/4/1 36/4/1
f 38/7/1 31/7/1 30/7/1
f 38/6/1 30/6/1 37/6/1
f 39/4/1 32/4/1 31/4/1
f 39/7/1 31/7/1 38/7/1
f 40/7/1 33/7/1 32/7/1
f 40/4/1 32/4/1 39/4/1
f 41/6/1 34/6/1 33/6/1
f 41/7/1 33/7/1 40/7/1
f 42/3/1 20/3/1 34/3/1
f 42/6/1 34/6/1 41/6/1
f 43/3/1 20/3/1 42/3/1
f 44/5/1 36/5/1 35/5/1
f 45/7/1 37/7/1 36/7/1
f 45/5/1 36/5/1 44/5/1
f 46/5/1 38/5/1 37/5/1
f 46/6/1 39/6/1 38/6/1
f 47/7/1 40/7/1 39/7/1
f 47/6/1 39/6/1 46/6/1
f 48/5/1 41/5/1 40/5/1
f 48/7/1 40/7/1 47/7/1
f 49/7/1 42/7/1 41/7/1
f 49/7/1 43/7/1 42/7/1
f 50/7/1 43/7/1 49/7/1
f 51/6/1 45/6/1 44/6/1
f 52/7/1 37/7/1 45/7/1
f 52/6/1 45/6/1 51/6/1
f 53/5/1 47/5/1 46/5/1
f 53/7/1 37/7/1 52/7/1
f 53/5/1 46/5/1 37/5/1
f 54/6/1 48/6/1 47/6/1
f 54/5/1 47/5/1 53/5/1
f 55/5/1 41/5/1 48/5/1
f 55/6/1 48/6/1 54/6/1
f 56/7/1 49/7/1 41/7/1
f 56/5/1 41/5/1 55/5/1
f 57/5/1 50/5/1 49/5/1
f 57/7/1 49/7/1 56/7/1
f 58/5/1 50/5/1 57/5/1
f 59/1/2 60/1/2 61/1/2
f 61/1/2 60/1/2 62/1/2
f 62/1/2 60/1/2 63/1/2
f 63/1/2 60/1/2 64/1/2
f 59/1/2 61/1/2 65/1/2
f 61/2/2 62/2/2 66/2/2
f 65/1/2 61/1/2 66/1/2
f 62/1/2 63/1/2 67/1/2
f 63/2/2 64/2/2 68/2/2
f 67/1/2 63/1/2 68/1/2
f 64/1/2 60/1/2 69/1/2
f 68/2/2 64/2/2 69/2/2
f 69/1/2 60/1/2 70/1/2
f 65/2/2 66/2/2 71/2/2
f 66/2/2 62/2/2 72/2/2
f 71/2/2 66/2/2 72/2/2
f 62/1/2 67/1/2 73/1/2
f 72/2/2 62/2/2 73/2/2
f 67/2/2 68/2/2 74/2/2
f 73/1/2 67/1/2 74/1/2
f 68/2/2 69/2/2 74/2/2
f 69/2/2 70/2/2 74/2/2
f 74/2/2 70/2/2 75/2/2
f 75/2/2 70/2/2 76/2/2
f 70/1/2 60/1/2 77/1/2
f 76/2/2 70/2/2 77/2/2
f 77/1/2 60/1/2 78/1/2
f 71/3/2 72/3/2 79/3/2
f 72/2/2 73/2/2 80/2/2
f 79/3/2 72/3/2 80/3/2
f 73/3/2 74/3/2 81/3/2
f 80/2/2 73/2/2 81/2/2
f 74/3/2 75/3/2 81/3/2
f 75/2/2 76/2/2 82/2/2
f 81/3/2 75/3/2 82/3/2
f 76/3/2 77/3/2 83/3/2
f 82/2/2 76/2/2 83/2/2
f 77/2/2 78/2/2 84/2/2
f 83/3/2 77/3/2 84/3/2
f 84/2/2 78/2/2 85/2/2
f 79/4/2 80/4/2 86/4/2
f 80/3/2 81/3/2 87/3/2
f 86/4/2 80/4/2 87/4/2
f 82/3/2 83/3/2 87/3/2
f 84/3/2 85/3/2 87/3/2
f 83/3/2 84/3/2 87/3/2
f 81/3/2 82/3/2 87/3/2
f 87/3/2 85/3/2 88/3/2
f 88/3/2 85/3/2 89/3/2
f 89/3/2 85/3/2 90/3/2
f 90/3/2 85/3/2 91/3/2
f 91/3/2 85/3/2 92/3/2
f 92/3/2 85/3/2 93/3/2
f 86/6/2 87/6/2 94/6/2
f 87/4/2 88/4/2 95/4/2
f 94/6/2 87/6/2 95/6/2
f 88/3/2 89/3/2 96/3/2
f 95/4/2 88/4/2 96/4/2
f 96/3/2 89/3/2 97/3/2
f 89/5/2 90/5/2 98/5/2
f 97/3/2 89/3/2 98/3/2
f 90/4/2 91/4/2 99/4/2
f 98/5/2 90/5/2 99/5/2
f 91/3/2 92/3/2 100/3/2
f 99/4/2 91/4/2 100/4/2
f 92/7/2 93/7/2 101/7/2
f 100/3/2 92/3/2 101/3/2
f 101/7/2 93/7/2 102/7/2
f 94/7/2 95/7/2 103/7/2
f 96/6/2 97/6/2 104/6/2
f 103/7/2 95/7/2 104/7/2
f 95/6/2 96/6/2 104/6/2
f 97/7/2 98/7/2 105/7/2
f 104/6/2 97/6/2 105/6/2
f 98/6/2 99/6/2 106/6/2
f 105/7/2 98/7/2 106/7/2
f 99/7/2 100/7/2 107/7/2
f 106/6/2 99/6/2 107/6/2
f 101/6/2 102/6/2 108/6/2
f 107/7/2 100/7/2 108/7/2
f 100/6/2 101/6/2 108/6/2
f 108/6/2 102/6/2 109/6/2
f 109/6/2 102/6/2 110/6/2
f 103/5/2 104/5/2 111/5/2
f 104/7/2 105/7/2 112/7/2
f 111/5/2 104/5/2 112/5/2
f 105/6/2 106/6/2 113/6/2
f 112/7/2 105/7/2 113/7/2
f 106/6/2 107/6/2 113/6/2
f 107/5/2 108/5/2 114/5/2
f 113/6/2 107/6/2 114/6/2
f 108/7/2 109/7/2 115/7/2
f 114/5/2 108/5/2 115/5/2
f 109/5/2 110/5/2 116/5/2
f 115/7/2 109/7/2 116/7/2
f 116/5/2 110/5/2 117/5/2
f 124/1/3 119/1/3 118/1/3
f 125/3/3 120/3/3 119/3/3
f 125/1/3 119/1/3 124/1/3
f 126/3/3 120/3/3 125/3/3
f 127/7/3 121/7/3 120/7/3
f 127/3/3 120/3/3 126/3/3
f 128/5/3 122/5/3 121/5/3
f 128/7/3 121/7/3 127/7/3
f 129/6/3 123/6/3 122/6/3
f 129/5/3 122/5/3 128/5/3
f 130/6/3 123/6/3 129/6/3
f 131/1/3 124/1/3 118/1/3
f 131/2/3 126/2/3 125/2/3
f 131/2/3 125/2/3 124/2/3
f 132/2/3 126/2/3 131/2/3
f 133/3/3 128/3/3 127/3/3
f 133/2/3 126/2/3 132/2/3
f 133/3/3 127/3/3 126/3/3
f 134/5/3 129/5/3 128/5/3
f 134/3/3 128/3/3 133/3/3
f 135/7/3 130/7/3 129/7/3
f 135/5/3 129/5/3 134/5/3
f 136/1/3 132/1/3 131/1/3
f 136/1/3 131/1/3 118/1/3
f 137/2/3 133/2/3 132/2/3
f 137/1/3 132/1/3 136/1/3
f 138/2/3 133/2/3 137/2/3
f 139/4/3 134/4/3 133/4/3
f 139/2/3 133/2/3 138/2/3
f 140/4/3 134/4/3 139/4/3
f 141/7/3 135/7/3 134/7/3
f 141/4/3 134/4/3 140/4/3
f 142/7/3 130/7/3 135/7/3
f 142/7/3 135/7/3 141/7/3
f 143/7/3 130/7/3 142/7/3
f 144/2/3 138/2/3 137/2/3
f 144/1/3 136/1/3 118/1/3
f 144/2/3 137/2/3 136/2/3
f 145/2/3 138/2/3 144/2/3
f 146/6/3 141/6/3 140/6/3
f 146/3/3 140/3/3 139/3/3
f 146/3/3 139/3/3 138/3/3
f 147/7/3 142/7/3 141/7/3
f 147/6/3 141/6/3 146/6/3
f 148/6/3 143/6/3 142/6/3
f 148/7/3 142/7/3 147/7/3
f 149/6/3 143/6/3 148/6/3
f 150/2/3 138/2/3 145/2/3
f 150/3/3 146/3/3 138/3/3
f 151/3/3 146/3/3 150/3/3
f 152/4/3 147/4/3 146/4/3
f 152/3/3 146/3/3 151/3/3
f 153/6/3 148/6/3 147/6/3
f 153/4/3 147/4/3 152/4/3
f 154/5/3 149/5/3 148/5/3
f 154/6/3 148/6/3 153/6/3
f 155/5/3 149/5/3 154/5/3
f 156/1/3 145/1/3 144/1/3
f 156/1/3 144/1/3 118/1/3
f 157/2/3 151/2/3 150/2/3
f 157/1/3 145/1/3 156/1/3
f 157/2/3 150/2/3 145/2/3
f 158/2/3 151/2/3 157/2/3
f 159/3/3 153/3/3 152/3/3
f 159/2/3 151/2/3 158/2/3
f 159/3/3 152/3/3 151/3/3
f 160/3/3 153/3/3 159/3/3
f 161/7/3 155/7/3 154/7/3
f 161/3/3 153/3/3 160/3/3
f 161/7/3 154/7/3 153/7/3
f 162/7/3 155/7/3 161/7/3
f 163/7/3 155/7/3 162/7/3
f 164/1/3 156/1/3 118/1/3
f 164/2/3 158/2/3 157/2/3
f 164/2/3 157/2/3 156/2/3
f 165/2/3 158/2/3 164/2/3
f 166/7/3 160/7/3 159/7/3
f 166/3/3 159/3/3 158/3/3
f 167/6/3 161/6/3 160/6/3
f 167/7/3 160/7/3 166/7/3
f 168/6/3 163/6/3 162/6/3
f 168/7/3 162/7/3 161/7/3
f 169/6/3 163/6/3 168/6/3
f 170/1/3 165/1/3 164/1/3
f 170/1/3 164/1/3 118/1/3
f 171/2/3 158/2/3 165/2/3
f 171/1/3 165/1/3 170/1/3
f 172/3/3 166/3/3 158/3/3
f 172/2/3 158/2/3 171/2/3
f 173/4/3 167/4/3 166/4/3
f 173/3/3 166/3/3 172/3/3
f 174/6/3 161/6/3 167/6/3
f 174/4/3 167/4/3 173/4/3
f 175/7/3 168/7/3 161/7/3
f 175/6/3 161/6/3 174/6/3
f 176/5/3 169/5/3 168/5/3
f 176/7/3 168/7/3 175/7/3
f 177/5/3 169/5/3 176/5/3
f 178/1/4 179/1/4 183/1/4
f 179/3/4 180/3/4 184/3/4
f 183/1/4 179/1/4 184/1/4
f 184/3/4 180/3/4 185/3/4
f 185/3/4 180/3/4 186/3/4
f 180/7/4 181/7/4 187/7/4
f 186/3/4 180/3/4 187/3/4
f 181/5/4 182/5/4 188/5/4
f 187/7/4 181/7/4 188/7/4
f 188/5/4 182/5/4 189/5/4
f 178/1/4 183/1/4 190/1/4
f 183/2/4 184/2/4 191/2/4
f 190/1/4 183/1/4 191/1/4
f 184/2/4 185/2/4 191/2/4
f 191/2/4 185/2/4 192/2/4
f 185/3/4 186/3/4 193/3/4
f 192/2/4 185/2/4 193/2/4
f 186/5/4 187/5/4 194/5/4
f 193/3/4 186/3/4 194/3/4
f 188/6/4 189/6/4 195/6/4
f 194/5/4 187/5/4 195/5/4
f 187/6/4 188/6/4 195/6/4
f 195/6/4 189/6/4 196/6/4
f 191/2/4 192/2/4 197/2/4
f 178/1/4 190/1/4 197/1/4
f 190/2/4 191/2/4 197/2/4
f 197/2/4 192/2/4 198/2/4
f 192/3/4 193/3/4 199/3/4
f 193/4/4 194/4/4 199/4/4
f 194/4/4 195/4/4 199/4/4
f 195/5/4 196/5/4 200/5/4
f 199/4/4 195/4/4 200/4/4
f 196/6/4 189/6/4 201/6/4
f 200/5/4 196/5/4 201/5/4
f 198/2/4 192/2/4 202/2/4
f 197/1/4 198/1/4 202/1/4
f 199/3/4 200/3/4 203/3/4
f 202/2/4 192/2/4 203/2/4
f 192/3/4 199/3/4 203/3/4
f 203/3/4 200/3/4 204/3/4
f 204/3/4 200/3/4 205/3/4
f 200/7/4 201/7/4 206/7/4
f 205/3/4 200/3/4 206/3/4
f 201/6/4 189/6/4 207/6/4
f 206/7/4 201/7/4 207/7/4
f 207/6/4 189/6/4 208/6/4
f 197/1/4 202/1/4 209/1/4
f 202/1/4 203/1/4 209/1/4
f 203/2/4 204/2/4 210/2/4
f 209/1/4 203/1/4 210/1/4
f 204/3/4 205/3/4 211/3/4
f 210/2/4 204/2/4 211/2/4
f 205/6/4 206/6/4 212/6/4
f 211/3/4 205/3/4 212/3/4
f 206/7/4 207/7/4 213/7/4
f 212/6/4 206/6/4 213/6/4
f 207/5/4 208/5/4 214/5/4
f 213/7/4 207/7/4 214/7/4
f 214/5/4 208/5/4 215/5/4
f 178/1/4 197/1/4 216/1/4
f 197/1/4 209/1/4 216/1/4
f 209/2/4 210/2/4 217/2/4
f 216/1/4 209/1/4 217/1/4
f 210/3/4 211/3/4 218/3/4
f 217/2/4 210/2/4 218/2/4
f 211/3/4 212/3/4 218/3/4
f 218/3/4 212/3/4 219/3/4
f 212/4/4 213/4/4 220/4/4
f 219/3/4 212/3/4 220/3/4
f 213/5/4 214/5/4 221/5/4
f 220/4/4 213/4/4 221/4/4
f 214/6/4 215/6/4 222/6/4
f 221/5/4 214/5/4 222/5/4
f 216/2/4 217/2/4 223/2/4
f 178/1/4 216/1/4 223/1/4
f 218/2/4 219/2/4 223/2/4
f 217/2/4 218/2/4 223/2/4
f 223/2/4 219/2/4 224/2/4
f 219/3/4 220/3/4 225/3/4
f 220/3/4 221/3/4 225/3/4
f 221/7/4 222/7/4 226/7/4
f 225/3/4 221/3/4 226/3/4
f 222/6/4 215/6/4 227/6/4
f 226/7/4 222/7/4 227/7/4
f 227/6/4 215/6/4 228/6/4
f 223/1/4 224/1/4 229/1/4
f 178/1/4 223/1/4 229/1/4
f 224/2/4 219/2/4 230/2/4
f 229/1/4 224/1/4 230/1/4
f 219/3/4 225/3/4 231/3/4
f 230/2/4 219/2/4 231/2/4
f 225/7/4 226/7/4 232/7/4
f 231/3/4 225/3/4 232/3/4
f 226/6/4 227/6/4 233/6/4
f 232/7/4 226/7/4 233/7/4
f 227/5/4 228/5/4 234/5/4
f 233/6/4 227/6/4 234/6/4
f 234/5/4 228/5/4 235/5/4
f 238/1/5 237/1/5 236/1/5
f 239/1/5 237/1/5 238/1/5
f 240/6/6 241/6/6 248/6/6
f 241/7/6 242/7/6 249/7/6
f 248/6/6 241/6/6 249/6/6
f 242/6/6 243/6/6 250/6/6
f 249/7/6 242/7/6 250/7/6
f 243/5/6 244/5/6 251/5/6
f 250/6/6 243/6/6 251/6/6
f 244/7/6 245/7/6 252/7/6
f 251/5/6 244/5/6 252/5/6
f 245/6/6 246/6/6 253/6/6
f 252/7/6 245/7/6 253/7/6
f 246/5/6 247/5/6 254/5/6
f 253/6/6 246/6/6 254/6/6
f 254/5/6 247/5/6 255/5/6
f 248/7/6 249/7/6 256/7/6
f 249/5/6 250/5/6 257/5/6
f 256/7/6 249/7/6 257/7/6
f 250/5/6 251/5/6 257/5/6
f 252/6/6 253/6/6 258/6/6
f 257/5/6 251/5/6 258/5/6
f 251/6/6 252/6/6 258/6/6
f 258/6/6 253/6/6 259/6/6
f 253/5/6 254/5/6 260/5/6
f 259/6/6 253/6/6 260/6/6
f 254/7/6 255/7/6 261/7/6
f 260/5/6 254/5/6 261/5/6
f 257/7/6 258/7/6 262/7/6
f 258/5/6 259/5/6 263/5/6
f 262/7/6 258/7/6 263/7/6
f 259/6/6 260/6/6 264/6/6
f 263/5/6 259/5/6 264/5/6
f 260/7/6 261/7/6 265/7/6
f 264/6/6 260/6/6 265/6/6
f 261/7/6 255/7/6 266/7/6
f 265/7/6 261/7/6 266/7/6
f 266/7/6 255/7/6 267/7/6
f 256/5/6 257/5/6 268/5/6
f 257/7/6 262/7/6 269/7/6
f 268/5/6 257/5/6 269/5/6
f 269/7/6 262/7/6 270/7/6
f 262/5/6 263/5/6 271/5/6
f 270/7/6 262/7/6 271/7/6
f 263/6/6 264/6/6 272/6/6
f 271/5/6 263/5/6 272/5/6
f 264/7/6 265/7/6 273/7/6
f 272/6/6 264/6/6 273/6/6
f 265/5/6 266/5/6 274/5/6
f 273/7/6 265/7/6 274/7/6
f 266/6/6 267/6/6 275/6/6
f 274/5/6 266/5/6 275/5/6
f 268/6/6 269/6/6 276/6/6
f 269/7/6 270/7/6 277/7/6
f 276/6/6 269/6/6 277/6/6
f 270/6/6 271/6/6 278/6/6
f 277/7/6 270/7/6 278/7/6
f 271/7/6 272/7/6 279/7/6
f 278/6/6 271/6/6 279/6/6
f 273/5/6 274/5/6 280/5/6
f 274/7/6 275/7/6 280/7/6
f 275/6/6 267/6/6 281/6/6
f 280/7/6 275/7/6 281/7/6
f 281/6/6 267/6/6 282/6/6
f 276/5/6 277/5/6 283/5/6
f 277/7/6 278/7/6 284/7/6
f 283/5/6 277/5/6 284/5/6
f 278/5/6 279/5/6 285/5/6
f 284/7/6 278/7/6 285/7/6
f 279/7/6 272/7/6 286/7/6
f 285/5/6 279/5/6 286/5/6
f 272/6/6 273/6/6 287/6/6
f 286/7/6 272/7/6 287/7/6
f 273/5/6 280/5/6 288/5/6
f 287/6/6 273/6/6 288/6/6
f 280/6/6 281/6/6 289/6/6
f 281/5/6 282/5/6 289/5/6
f 289/5/6 282/5/6 290/5/6
f 283/7/6 284/7/6 291/7/6
f 285/5/6 286/5/6 292/5/6
f 291/7/6 284/7/6 292/7/6
f 284/5/6 285/5/6 292/5/6
f 286/6/6 287/6/6 293/6/6
f 292/5/6 286/5/6 293/5/6
f 287/7/6 288/7/6 294/7/6
f 293/6/6 287/6/6 294/6/6
f 288/5/6 280/5/6 295/5/6
f 294/7/6 288/7/6 295/7/6
f 280/6/6 289/6/6 296/6/6
f 295/5/6 280/5/6 296/5/6
f 289/7/6 290/7/6 297/7/6
f 296/6/6 289/6/6 297/6/6
f 297/7/6 290/7/6 298/7/6
f 291/5/6 292/5/6 299/5/6
f 293/6/6 294/6/6 300/6/6
f 299/5/6 292/5/6 300/5/6
f 292/6/6 293/6/6 300/6/6
f 294/5/6 295/5/6 301/5/6
f 300/6/6 294/6/6 301/6/6
f 295/6/6 296/6/6 302/6/6
f 301/5/6 295/5/6 302/5/6
f 296/6/6 297/6/6 302/6/6
f 297/5/6 298/5/6 303/5/6
f 302/6/6 297/6/6 303/6/6
f 303/5/6 298/5/6 304/5/6
