# MagicaVoxel @ Ephtracy

# group
o 

# material
mtllib Bricks.mtl
usemtl palette

# normals
vn -1 0 0
vn 1 0 0
vn 0 0 1
vn 0 0 -1
vn 0 -1 0
vn 0 1 0

# texcoords
vt 0.00195313 0.5
vt 0.00585938 0.5
vt 0.00976563 0.5
vt 0.0136719 0.5
vt 0.0175781 0.5
vt 0.0214844 0.5
vt 0.0253906 0.5
vt 0.0292969 0.5
vt 0.306641 0.5

# verts
v -0.4 0 0.4
v -0.4 0 0.3
v -0.4 0 0.2
v -0.4 0 0.1
v -0.4 0 0
v -0.4 0 -0.3
v -0.4 0 -0.4
v -0.4 0.1 0.4
v -0.4 0.1 0.3
v -0.4 0.1 0.2
v -0.4 0.1 0.1
v -0.4 0.1 0
v -0.4 0.1 -0.1
v -0.4 0.1 -0.2
v -0.4 0.1 -0.3
v -0.4 0.1 -0.4
v -0.4 0.2 0.3
v -0.4 0.2 0.2
v -0.4 0.2 0.1
v -0.4 0.2 0
v -0.4 0.2 -0.3
v -0.4 0.2 -0.4
v -0.4 0.3 0.4
v -0.4 0.3 0.3
v -0.4 0.3 0.2
v -0.4 0.3 0.1
v -0.4 0.3 0
v -0.4 0.3 -0.1
v -0.4 0.3 -0.2
v -0.4 0.3 -0.3
v -0.4 0.3 -0.4
v -0.4 0.4 0.4
v -0.4 0.4 0.3
v -0.4 0.4 0.2
v -0.4 0.4 0.1
v -0.4 0.4 0
v -0.4 0.4 -0.1
v -0.4 0.4 -0.2
v -0.4 0.4 -0.3
v -0.4 0.4 -0.4
v -0.4 0.5 0.4
v -0.4 0.5 0.3
v -0.4 0.5 0.2
v -0.4 0.5 0
v -0.4 0.5 -0.1
v -0.4 0.5 -0.2
v -0.4 0.5 -0.3
v -0.4 0.5 -0.4
v -0.4 0.6 0.4
v -0.4 0.6 0.3
v -0.4 0.6 0.2
v -0.4 0.6 0.1
v -0.4 0.6 0
v -0.4 0.6 -0.1
v -0.4 0.6 -0.2
v -0.4 0.6 -0.3
v -0.4 0.6 -0.4
v -0.4 0.7 0.4
v -0.4 0.7 0.3
v -0.4 0.7 0.1
v -0.4 0.7 0
v -0.4 0.7 -0.1
v -0.4 0.7 -0.2
v -0.4 0.7 -0.3
v -0.4 0.7 -0.4
v -0.4 0.8 0.4
v -0.4 0.8 0.3
v -0.4 0.8 0
v -0.4 0.8 -0.1
v -0.4 0.8 -0.2
v -0.4 0.8 -0.3
v -0.4 0.8 -0.4
v 0.4 0 0.4
v 0.4 0 0.3
v 0.4 0 0.2
v 0.4 0 0
v 0.4 0 -0.1
v 0.4 0 -0.3
v 0.4 0 -0.4
v 0.4 0.1 0.4
v 0.4 0.1 0.3
v 0.4 0.1 0.2
v 0.4 0.1 0
v 0.4 0.1 -0.1
v 0.4 0.1 -0.2
v 0.4 0.1 -0.3
v 0.4 0.1 -0.4
v 0.4 0.2 0.4
v 0.4 0.2 0.3
v 0.4 0.2 0.2
v 0.4 0.2 0.1
v 0.4 0.2 -0.1
v 0.4 0.2 -0.2
v 0.4 0.2 -0.3
v 0.4 0.2 -0.4
v 0.4 0.3 0.4
v 0.4 0.3 0.3
v 0.4 0.3 0.2
v 0.4 0.3 0.1
v 0.4 0.3 0
v 0.4 0.3 -0.1
v 0.4 0.3 -0.2
v 0.4 0.3 -0.3
v 0.4 0.3 -0.4
v 0.4 0.4 0.4
v 0.4 0.4 0.2
v 0.4 0.4 0.1
v 0.4 0.4 0
v 0.4 0.4 -0.1
v 0.4 0.4 -0.2
v 0.4 0.4 -0.3
v 0.4 0.4 -0.4
v 0.4 0.5 0.4
v 0.4 0.5 0.3
v 0.4 0.5 0.2
v 0.4 0.5 0.1
v 0.4 0.5 -0.1
v 0.4 0.5 -0.2
v 0.4 0.5 -0.3
v 0.4 0.5 -0.4
v 0.4 0.6 0.4
v 0.4 0.6 0.3
v 0.4 0.6 0.2
v 0.4 0.6 -0.1
v 0.4 0.6 -0.2
v 0.4 0.6 -0.3
v 0.4 0.6 -0.4
v 0.4 0.7 0.4
v 0.4 0.7 0.3
v 0.4 0.7 0.2
v 0.4 0.7 0.1
v 0.4 0.7 0
v 0.4 0.7 -0.1
v 0.4 0.7 -0.2
v 0.4 0.7 -0.3
v 0.4 0.8 0.4
v 0.4 0.8 0.3
v 0.4 0.8 0.2
v 0.4 0.8 0
v 0.4 0.8 -0.1
v 0.4 0.8 -0.2
v 0.4 0.8 -0.3
v 0.4 0.8 -0.4
v -0.4 0 0.4
v -0.4 0.1 0.4
v -0.4 0.3 0.4
v -0.4 0.4 0.4
v -0.4 0.5 0.4
v -0.4 0.6 0.4
v -0.4 0.7 0.4
v -0.4 0.8 0.4
v -0.3 0 0.4
v -0.3 0.1 0.4
v -0.3 0.2 0.4
v -0.3 0.3 0.4
v -0.3 0.4 0.4
v -0.3 0.5 0.4
v -0.3 0.6 0.4
v -0.3 0.7 0.4
v -0.3 0.8 0.4
v -0.2 0 0.4
v -0.2 0.1 0.4
v -0.2 0.5 0.4
v -0.2 0.6 0.4
v -0.2 0.7 0.4
v -0.2 0.8 0.4
v -0.1 0.1 0.4
v -0.1 0.2 0.4
v -0.1 0.3 0.4
v -0.1 0.4 0.4
v -0.1 0.5 0.4
v -0.1 0.6 0.4
v -0.1 0.7 0.4
v -0.1 0.8 0.4
v 0 0 0.4
v 0 0.1 0.4
v 0 0.2 0.4
v 0 0.3 0.4
v 0 0.4 0.4
v 0 0.5 0.4
v 0 0.6 0.4
v 0 0.7 0.4
v 0 0.8 0.4
v 0.1 0 0.4
v 0.1 0.1 0.4
v 0.1 0.2 0.4
v 0.1 0.3 0.4
v 0.1 0.4 0.4
v 0.1 0.5 0.4
v 0.1 0.6 0.4
v 0.2 0 0.4
v 0.2 0.1 0.4
v 0.2 0.2 0.4
v 0.2 0.3 0.4
v 0.2 0.4 0.4
v 0.2 0.5 0.4
v 0.2 0.6 0.4
v 0.2 0.7 0.4
v 0.2 0.8 0.4
v 0.3 0 0.4
v 0.3 0.1 0.4
v 0.3 0.2 0.4
v 0.3 0.3 0.4
v 0.3 0.4 0.4
v 0.3 0.5 0.4
v 0.3 0.6 0.4
v 0.3 0.7 0.4
v 0.3 0.8 0.4
v 0.4 0 0.4
v 0.4 0.1 0.4
v 0.4 0.2 0.4
v 0.4 0.3 0.4
v 0.4 0.4 0.4
v 0.4 0.5 0.4
v 0.4 0.6 0.4
v 0.4 0.7 0.4
v 0.4 0.8 0.4
v -0.4 0 -0.4
v -0.4 0.1 -0.4
v -0.4 0.2 -0.4
v -0.4 0.3 -0.4
v -0.4 0.4 -0.4
v -0.4 0.5 -0.4
v -0.4 0.6 -0.4
v -0.4 0.7 -0.4
v -0.4 0.8 -0.4
v -0.3 0 -0.4
v -0.3 0.1 -0.4
v -0.3 0.2 -0.4
v -0.3 0.3 -0.4
v -0.3 0.4 -0.4
v -0.3 0.5 -0.4
v -0.3 0.6 -0.4
v -0.3 0.7 -0.4
v -0.2 0 -0.4
v -0.2 0.1 -0.4
v -0.2 0.2 -0.4
v -0.2 0.3 -0.4
v -0.2 0.4 -0.4
v -0.2 0.5 -0.4
v -0.2 0.6 -0.4
v -0.2 0.7 -0.4
v -0.2 0.8 -0.4
v -0.1 0 -0.4
v -0.1 0.1 -0.4
v -0.1 0.2 -0.4
v -0.1 0.3 -0.4
v -0.1 0.4 -0.4
v -0.1 0.5 -0.4
v -0.1 0.6 -0.4
v -0.1 0.7 -0.4
v -0.1 0.8 -0.4
v 0 0.2 -0.4
v 0 0.3 -0.4
v 0 0.4 -0.4
v 0 0.6 -0.4
v 0 0.7 -0.4
v 0.1 0 -0.4
v 0.1 0.1 -0.4
v 0.1 0.2 -0.4
v 0.1 0.3 -0.4
v 0.1 0.4 -0.4
v 0.1 0.5 -0.4
v 0.1 0.6 -0.4
v 0.1 0.7 -0.4
v 0.1 0.8 -0.4
v 0.2 0 -0.4
v 0.2 0.1 -0.4
v 0.2 0.2 -0.4
v 0.2 0.4 -0.4
v 0.2 0.5 -0.4
v 0.2 0.6 -0.4
v 0.2 0.7 -0.4
v 0.2 0.8 -0.4
v 0.3 0 -0.4
v 0.3 0.1 -0.4
v 0.3 0.2 -0.4
v 0.3 0.3 -0.4
v 0.3 0.4 -0.4
v 0.3 0.5 -0.4
v 0.3 0.6 -0.4
v 0.3 0.7 -0.4
v 0.3 0.8 -0.4
v 0.4 0 -0.4
v 0.4 0.1 -0.4
v 0.4 0.2 -0.4
v 0.4 0.3 -0.4
v 0.4 0.4 -0.4
v 0.4 0.5 -0.4
v 0.4 0.6 -0.4
v 0.4 0.8 -0.4
v -0.4 0 0.4
v -0.3 0 0.4
v -0.2 0 0.4
v 0 0 0.4
v 0.1 0 0.4
v 0.2 0 0.4
v 0.3 0 0.4
v 0.4 0 0.4
v -0.4 0 0.3
v -0.3 0 0.3
v -0.2 0 0.3
v 0 0 0.3
v 0.1 0 0.3
v 0.2 0 0.3
v 0.3 0 0.3
v 0.4 0 0.3
v -0.4 0 0.2
v -0.3 0 0.2
v 0.3 0 0.2
v 0.4 0 0.2
v -0.4 0 0.1
v -0.3 0 0.1
v -0.4 0 0
v -0.3 0 0
v 0.3 0 0
v 0.4 0 0
v 0.3 0 -0.1
v 0.4 0 -0.1
v -0.4 0 -0.3
v -0.3 0 -0.3
v -0.2 0 -0.3
v -0.1 0 -0.3
v 0.1 0 -0.3
v 0.2 0 -0.3
v 0.3 0 -0.3
v 0.4 0 -0.3
v -0.4 0 -0.4
v -0.3 0 -0.4
v -0.2 0 -0.4
v -0.1 0 -0.4
v 0.1 0 -0.4
v 0.2 0 -0.4
v 0.3 0 -0.4
v 0.4 0 -0.4
v -0.4 0.8 0.4
v -0.3 0.8 0.4
v -0.2 0.8 0.4
v -0.1 0.8 0.4
v 0 0.8 0.4
v 0.2 0.8 0.4
v 0.3 0.8 0.4
v 0.4 0.8 0.4
v -0.4 0.8 0.3
v -0.3 0.8 0.3
v -0.2 0.8 0.3
v -0.1 0.8 0.3
v 0 0.8 0.3
v 0.2 0.8 0.3
v 0.3 0.8 0.3
v 0.4 0.8 0.3
v 0.3 0.8 0.2
v 0.4 0.8 0.2
v -0.4 0.8 0
v -0.3 0.8 0
v 0.3 0.8 0
v 0.4 0.8 0
v -0.4 0.8 -0.1
v -0.3 0.8 -0.1
v 0.3 0.8 -0.1
v 0.4 0.8 -0.1
v -0.4 0.8 -0.2
v -0.3 0.8 -0.2
v 0.3 0.8 -0.2
v 0.4 0.8 -0.2
v -0.4 0.8 -0.3
v -0.3 0.8 -0.3
v -0.2 0.8 -0.3
v -0.1 0.8 -0.3
v 0.1 0.8 -0.3
v 0.2 0.8 -0.3
v 0.3 0.8 -0.3
v 0.4 0.8 -0.3
v -0.4 0.8 -0.4
v -0.2 0.8 -0.4
v -0.1 0.8 -0.4
v 0.1 0.8 -0.4
v 0.2 0.8 -0.4
v 0.3 0.8 -0.4
v 0.4 0.8 -0.4

# faces
f 8/1/1 2/1/1 1/1/1
f 9/3/1 3/3/1 2/3/1
f 9/1/1 2/1/1 8/1/1
f 10/1/1 4/1/1 3/1/1
f 10/3/1 3/3/1 9/3/1
f 11/3/1 5/3/1 4/3/1
f 11/1/1 4/1/1 10/1/1
f 12/1/1 6/1/1 5/1/1
f 12/3/1 5/3/1 11/3/1
f 13/1/1 6/1/1 12/1/1
f 14/1/1 6/1/1 13/1/1
f 15/3/1 7/3/1 6/3/1
f 15/1/1 6/1/1 14/1/1
f 16/3/1 7/3/1 15/3/1
f 17/7/1 9/7/1 8/7/1
f 17/5/1 10/5/1 9/5/1
f 18/2/1 11/2/1 10/2/1
f 18/5/1 10/5/1 17/5/1
f 19/8/1 12/8/1 11/8/1
f 19/2/1 11/2/1 18/2/1
f 19/8/1 13/8/1 12/8/1
f 20/8/1 13/8/1 19/8/1
f 21/7/1 16/7/1 15/7/1
f 21/8/1 15/8/1 14/8/1
f 22/7/1 16/7/1 21/7/1
f 23/7/1 17/7/1 8/7/1
f 24/8/1 18/8/1 17/8/1
f 24/7/1 17/7/1 23/7/1
f 25/4/1 19/4/1 18/4/1
f 25/8/1 18/8/1 24/8/1
f 26/5/1 20/5/1 19/5/1
f 26/4/1 19/4/1 25/4/1
f 27/8/1 13/8/1 20/8/1
f 27/5/1 20/5/1 26/5/1
f 28/5/1 14/5/1 13/5/1
f 28/8/1 13/8/1 27/8/1
f 29/8/1 21/8/1 14/8/1
f 29/5/1 14/5/1 28/5/1
f 30/6/1 22/6/1 21/6/1
f 30/8/1 21/8/1 29/8/1
f 31/6/1 22/6/1 30/6/1
f 32/6/1 24/6/1 23/6/1
f 33/7/1 25/7/1 24/7/1
f 33/6/1 24/6/1 32/6/1
f 34/2/1 26/2/1 25/2/1
f 34/7/1 25/7/1 33/7/1
f 35/7/1 27/7/1 26/7/1
f 35/2/1 26/2/1 34/2/1
f 36/6/1 28/6/1 27/6/1
f 36/7/1 27/7/1 35/7/1
f 37/7/1 29/7/1 28/7/1
f 37/6/1 28/6/1 36/6/1
f 37/7/1 30/7/1 29/7/1
f 37/7/1 31/7/1 30/7/1
f 38/7/1 31/7/1 37/7/1
f 39/7/1 31/7/1 38/7/1
f 40/7/1 31/7/1 39/7/1
f 41/3/1 34/3/1 33/3/1
f 41/3/1 33/3/1 32/3/1
f 42/3/1 34/3/1 41/3/1
f 43/1/1 35/1/1 34/1/1
f 43/3/1 34/3/1 42/3/1
f 43/1/1 36/1/1 35/1/1
f 44/3/1 37/3/1 36/3/1
f 44/1/1 36/1/1 43/1/1
f 45/1/1 38/1/1 37/1/1
f 45/3/1 37/3/1 44/3/1
f 46/3/1 39/3/1 38/3/1
f 46/1/1 38/1/1 45/1/1
f 47/1/1 40/1/1 39/1/1
f 47/3/1 39/3/1 46/3/1
f 48/1/1 40/1/1 47/1/1
f 49/6/1 42/6/1 41/6/1
f 50/5/1 43/5/1 42/5/1
f 50/6/1 42/6/1 49/6/1
f 51/8/1 44/8/1 43/8/1
f 51/5/1 43/5/1 50/5/1
f 51/8/1 45/8/1 44/8/1
f 52/8/1 45/8/1 51/8/1
f 53/8/1 45/8/1 52/8/1
f 54/5/1 46/5/1 45/5/1
f 54/8/1 45/8/1 53/8/1
f 55/2/1 47/2/1 46/2/1
f 55/5/1 46/5/1 54/5/1
f 56/7/1 48/7/1 47/7/1
f 56/2/1 47/2/1 55/2/1
f 57/7/1 48/7/1 56/7/1
f 58/7/1 50/7/1 49/7/1
f 59/8/1 51/8/1 50/8/1
f 59/7/1 50/7/1 58/7/1
f 59/8/1 52/8/1 51/8/1
f 60/5/1 53/5/1 52/5/1
f 60/8/1 52/8/1 59/8/1
f 61/8/1 55/8/1 54/8/1
f 61/5/1 53/5/1 60/5/1
f 61/8/1 54/8/1 53/8/1
f 62/8/1 55/8/1 61/8/1
f 63/4/1 56/4/1 55/4/1
f 63/8/1 55/8/1 62/8/1
f 64/6/1 57/6/1 56/6/1
f 64/4/1 56/4/1 63/4/1
f 65/6/1 57/6/1 64/6/1
f 66/6/1 59/6/1 58/6/1
f 67/7/1 60/7/1 59/7/1
f 67/6/1 59/6/1 66/6/1
f 67/7/1 61/7/1 60/7/1
f 68/6/1 62/6/1 61/6/1
f 68/7/1 61/7/1 67/7/1
f 69/7/1 63/7/1 62/7/1
f 69/6/1 62/6/1 68/6/1
f 70/2/1 64/2/1 63/2/1
f 70/7/1 63/7/1 69/7/1
f 71/7/1 65/7/1 64/7/1
f 71/2/1 64/2/1 70/2/1
f 72/7/1 65/7/1 71/7/1
f 73/1/2 74/1/2 80/1/2
f 74/3/2 75/3/2 81/3/2
f 80/1/2 74/1/2 81/1/2
f 75/1/2 76/1/2 82/1/2
f 81/3/2 75/3/2 82/3/2
f 76/3/2 77/3/2 83/3/2
f 82/1/2 76/1/2 83/1/2
f 77/1/2 78/1/2 84/1/2
f 83/3/2 77/3/2 84/3/2
f 84/1/2 78/1/2 85/1/2
f 78/3/2 79/3/2 86/3/2
f 85/1/2 78/1/2 86/1/2
f 86/3/2 79/3/2 87/3/2
f 80/7/2 81/7/2 88/7/2
f 81/5/2 82/5/2 89/5/2
f 88/7/2 81/7/2 89/7/2
f 82/8/2 83/8/2 90/8/2
f 89/5/2 82/5/2 90/5/2
f 83/8/2 84/8/2 90/8/2
f 90/8/2 84/8/2 91/8/2
f 84/2/2 85/2/2 92/2/2
f 91/8/2 84/8/2 92/8/2
f 85/8/2 86/8/2 93/8/2
f 92/2/2 85/2/2 93/2/2
f 86/6/2 87/6/2 94/6/2
f 93/8/2 86/8/2 94/8/2
f 94/6/2 87/6/2 95/6/2
f 88/6/2 89/6/2 96/6/2
f 90/8/2 91/8/2 97/8/2
f 96/6/2 89/6/2 97/6/2
f 89/8/2 90/8/2 97/8/2
f 97/8/2 91/8/2 98/8/2
f 91/5/2 92/5/2 99/5/2
f 98/8/2 91/8/2 99/8/2
f 99/5/2 92/5/2 100/5/2
f 92/4/2 93/4/2 101/4/2
f 100/5/2 92/5/2 101/5/2
f 93/5/2 94/5/2 102/5/2
f 101/4/2 93/4/2 102/4/2
f 94/7/2 95/7/2 103/7/2
f 102/5/2 94/5/2 103/5/2
f 103/7/2 95/7/2 104/7/2
f 97/7/2 98/7/2 105/7/2
f 96/7/2 97/7/2 105/7/2
f 98/6/2 99/6/2 106/6/2
f 105/7/2 98/7/2 106/7/2
f 99/7/2 100/7/2 107/7/2
f 106/6/2 99/6/2 107/6/2
f 100/6/2 101/6/2 108/6/2
f 107/7/2 100/7/2 108/7/2
f 101/2/2 102/2/2 109/2/2
f 108/6/2 101/6/2 109/6/2
f 102/7/2 103/7/2 110/7/2
f 109/2/2 102/2/2 110/2/2
f 103/6/2 104/6/2 111/6/2
f 110/7/2 103/7/2 111/7/2
f 111/6/2 104/6/2 112/6/2
f 105/1/2 106/1/2 113/1/2
f 113/1/2 106/1/2 114/1/2
f 106/3/2 107/3/2 115/3/2
f 114/1/2 106/1/2 115/1/2
f 107/1/2 108/1/2 116/1/2
f 115/3/2 107/3/2 116/3/2
f 109/1/2 110/1/2 116/1/2
f 108/1/2 109/1/2 116/1/2
f 116/1/2 110/1/2 117/1/2
f 110/3/2 111/3/2 118/3/2
f 117/1/2 110/1/2 118/1/2
f 111/1/2 112/1/2 119/1/2
f 118/3/2 111/3/2 119/3/2
f 119/1/2 112/1/2 120/1/2
f 113/7/2 114/7/2 121/7/2
f 114/2/2 115/2/2 122/2/2
f 121/7/2 114/7/2 122/7/2
f 115/5/2 116/5/2 123/5/2
f 122/2/2 115/2/2 123/2/2
f 117/5/2 118/5/2 124/5/2
f 116/8/2 117/8/2 124/8/2
f 118/8/2 119/8/2 125/8/2
f 124/5/2 118/5/2 125/5/2
f 119/6/2 120/6/2 126/6/2
f 125/8/2 119/8/2 126/8/2
f 126/6/2 120/6/2 127/6/2
f 121/6/2 122/6/2 128/6/2
f 122/4/2 123/4/2 129/4/2
f 128/6/2 122/6/2 129/6/2
f 123/5/2 116/5/2 130/5/2
f 129/4/2 123/4/2 130/4/2
f 116/8/2 124/8/2 131/8/2
f 130/5/2 116/5/2 131/5/2
f 124/8/2 125/8/2 131/8/2
f 125/8/2 126/8/2 131/8/2
f 131/8/2 126/8/2 132/8/2
f 132/8/2 126/8/2 133/8/2
f 133/8/2 126/8/2 134/8/2
f 126/7/2 127/7/2 135/7/2
f 134/8/2 126/8/2 135/8/2
f 128/7/2 129/7/2 136/7/2
f 129/2/2 130/2/2 137/2/2
f 136/7/2 129/7/2 137/7/2
f 130/7/2 131/7/2 138/7/2
f 137/2/2 130/2/2 138/2/2
f 131/7/2 132/7/2 138/7/2
f 132/6/2 133/6/2 139/6/2
f 138/7/2 132/7/2 139/7/2
f 133/7/2 134/7/2 140/7/2
f 139/6/2 133/6/2 140/6/2
f 134/6/2 135/6/2 141/6/2
f 140/7/2 134/7/2 141/7/2
f 135/7/2 127/7/2 142/7/2
f 141/6/2 135/6/2 142/6/2
f 142/7/2 127/7/2 143/7/2
f 152/1/3 145/1/3 144/1/3
f 153/7/3 146/7/3 145/7/3
f 153/1/3 145/1/3 152/1/3
f 154/7/3 146/7/3 153/7/3
f 155/6/3 147/6/3 146/6/3
f 155/7/3 146/7/3 154/7/3
f 156/3/3 148/3/3 147/3/3
f 156/6/3 147/6/3 155/6/3
f 157/6/3 149/6/3 148/6/3
f 157/3/3 148/3/3 156/3/3
f 158/7/3 150/7/3 149/7/3
f 158/6/3 149/6/3 157/6/3
f 159/6/3 151/6/3 150/6/3
f 159/7/3 150/7/3 158/7/3
f 160/6/3 151/6/3 159/6/3
f 161/3/3 153/3/3 152/3/3
f 162/5/3 154/5/3 153/5/3
f 162/3/3 153/3/3 161/3/3
f 163/2/3 158/2/3 157/2/3
f 163/1/3 157/1/3 156/1/3
f 164/4/3 159/4/3 158/4/3
f 164/2/3 158/2/3 163/2/3
f 165/2/3 160/2/3 159/2/3
f 165/4/3 159/4/3 164/4/3
f 166/2/3 160/2/3 165/2/3
f 167/5/3 154/5/3 162/5/3
f 167/1/3 162/1/3 161/1/3
f 168/8/3 155/8/3 154/8/3
f 168/5/3 154/5/3 167/5/3
f 169/7/3 156/7/3 155/7/3
f 169/8/3 155/8/3 168/8/3
f 170/1/3 163/1/3 156/1/3
f 170/7/3 156/7/3 169/7/3
f 171/5/3 164/5/3 163/5/3
f 171/1/3 163/1/3 170/1/3
f 172/8/3 165/8/3 164/8/3
f 172/5/3 164/5/3 171/5/3
f 173/7/3 166/7/3 165/7/3
f 173/8/3 165/8/3 172/8/3
f 174/7/3 166/7/3 173/7/3
f 175/1/3 167/1/3 161/1/3
f 176/8/3 168/8/3 167/8/3
f 176/1/3 167/1/3 175/1/3
f 176/8/3 169/8/3 168/8/3
f 177/8/3 169/8/3 176/8/3
f 178/6/3 170/6/3 169/6/3
f 178/8/3 169/8/3 177/8/3
f 179/1/3 171/1/3 170/1/3
f 179/6/3 170/6/3 178/6/3
f 180/8/3 172/8/3 171/8/3
f 180/1/3 171/1/3 179/1/3
f 181/5/3 173/5/3 172/5/3
f 181/8/3 172/8/3 180/8/3
f 182/6/3 174/6/3 173/6/3
f 182/5/3 173/5/3 181/5/3
f 183/6/3 174/6/3 182/6/3
f 184/3/3 176/3/3 175/3/3
f 185/8/3 177/8/3 176/8/3
f 185/3/3 176/3/3 184/3/3
f 186/5/3 178/5/3 177/5/3
f 186/8/3 177/8/3 185/8/3
f 187/7/3 179/7/3 178/7/3
f 187/5/3 178/5/3 186/5/3
f 188/3/3 180/3/3 179/3/3
f 188/7/3 179/7/3 187/7/3
f 189/8/3 181/8/3 180/8/3
f 189/3/3 180/3/3 188/3/3
f 189/8/3 182/8/3 181/8/3
f 190/8/3 182/8/3 189/8/3
f 191/1/3 185/1/3 184/1/3
f 192/2/3 186/2/3 185/2/3
f 192/1/3 185/1/3 191/1/3
f 193/4/3 187/4/3 186/4/3
f 193/2/3 186/2/3 192/2/3
f 194/2/3 188/2/3 187/2/3
f 194/4/3 187/4/3 193/4/3
f 195/1/3 189/1/3 188/1/3
f 195/2/3 188/2/3 194/2/3
f 196/5/3 190/5/3 189/5/3
f 196/1/3 189/1/3 195/1/3
f 197/8/3 182/8/3 190/8/3
f 197/5/3 190/5/3 196/5/3
f 198/7/3 183/7/3 182/7/3
f 198/8/3 182/8/3 197/8/3
f 199/7/3 183/7/3 198/7/3
f 200/3/3 192/3/3 191/3/3
f 201/5/3 193/5/3 192/5/3
f 201/3/3 192/3/3 200/3/3
f 202/8/3 194/8/3 193/8/3
f 202/5/3 193/5/3 201/5/3
f 203/7/3 195/7/3 194/7/3
f 203/8/3 194/8/3 202/8/3
f 204/3/3 196/3/3 195/3/3
f 204/7/3 195/7/3 203/7/3
f 205/8/3 197/8/3 196/8/3
f 205/3/3 196/3/3 204/3/3
f 205/8/3 198/8/3 197/8/3
f 206/8/3 198/8/3 205/8/3
f 207/6/3 199/6/3 198/6/3
f 207/8/3 198/8/3 206/8/3
f 208/6/3 199/6/3 207/6/3
f 209/1/3 201/1/3 200/1/3
f 210/7/3 202/7/3 201/7/3
f 210/1/3 201/1/3 209/1/3
f 211/6/3 203/6/3 202/6/3
f 211/7/3 202/7/3 210/7/3
f 212/7/3 204/7/3 203/7/3
f 212/6/3 203/6/3 211/6/3
f 213/1/3 205/1/3 204/1/3
f 213/7/3 204/7/3 212/7/3
f 214/7/3 206/7/3 205/7/3
f 214/1/3 205/1/3 213/1/3
f 215/6/3 207/6/3 206/6/3
f 215/7/3 206/7/3 214/7/3
f 216/7/3 208/7/3 207/7/3
f 216/6/3 207/6/3 215/6/3
f 217/7/3 208/7/3 216/7/3
f 218/3/4 219/3/4 227/3/4
f 219/7/4 220/7/4 228/7/4
f 227/3/4 219/3/4 228/3/4
f 220/6/4 221/6/4 229/6/4
f 228/7/4 220/7/4 229/7/4
f 221/7/4 222/7/4 230/7/4
f 229/6/4 221/6/4 230/6/4
f 222/1/4 223/1/4 231/1/4
f 230/7/4 222/7/4 231/7/4
f 223/7/4 224/7/4 232/7/4
f 231/1/4 223/1/4 232/1/4
f 224/6/4 225/6/4 233/6/4
f 232/7/4 224/7/4 233/7/4
f 225/7/4 226/7/4 234/7/4
f 233/6/4 225/6/4 234/6/4
f 227/1/4 228/1/4 235/1/4
f 228/5/4 229/5/4 236/5/4
f 235/1/4 228/1/4 236/1/4
f 229/8/4 230/8/4 237/8/4
f 236/5/4 229/5/4 237/5/4
f 230/6/4 231/6/4 238/6/4
f 237/8/4 230/8/4 238/8/4
f 231/1/4 232/1/4 239/1/4
f 238/6/4 231/6/4 239/6/4
f 232/8/4 233/8/4 240/8/4
f 239/1/4 232/1/4 240/1/4
f 233/5/4 234/5/4 241/5/4
f 240/8/4 233/8/4 241/8/4
f 234/7/4 226/7/4 242/7/4
f 241/5/4 234/5/4 242/5/4
f 242/7/4 226/7/4 243/7/4
f 235/3/4 236/3/4 244/3/4
f 236/2/4 237/2/4 245/2/4
f 244/3/4 236/3/4 245/3/4
f 237/4/4 238/4/4 246/4/4
f 245/2/4 237/2/4 246/2/4
f 238/2/4 239/2/4 247/2/4
f 246/4/4 238/4/4 247/4/4
f 239/3/4 240/3/4 248/3/4
f 247/2/4 239/2/4 248/2/4
f 240/5/4 241/5/4 249/5/4
f 248/3/4 240/3/4 249/3/4
f 241/8/4 242/8/4 250/8/4
f 249/5/4 241/5/4 250/5/4
f 242/6/4 243/6/4 251/6/4
f 250/8/4 242/8/4 251/8/4
f 251/6/4 243/6/4 252/6/4
f 245/8/4 246/8/4 253/8/4
f 246/8/4 247/8/4 253/8/4
f 247/7/4 248/7/4 254/7/4
f 253/8/4 247/8/4 254/8/4
f 248/1/4 249/1/4 255/1/4
f 254/7/4 248/7/4 255/7/4
f 249/8/4 250/8/4 256/8/4
f 250/8/4 251/8/4 256/8/4
f 251/7/4 252/7/4 257/7/4
f 256/8/4 251/8/4 257/8/4
f 244/1/4 245/1/4 258/1/4
f 245/8/4 253/8/4 259/8/4
f 258/1/4 245/1/4 259/1/4
f 253/5/4 254/5/4 260/5/4
f 259/8/4 253/8/4 260/8/4
f 254/6/4 255/6/4 261/6/4
f 260/5/4 254/5/4 261/5/4
f 255/1/4 249/1/4 262/1/4
f 261/6/4 255/6/4 262/6/4
f 249/8/4 256/8/4 263/8/4
f 262/1/4 249/1/4 263/1/4
f 256/5/4 257/5/4 264/5/4
f 263/8/4 256/8/4 264/8/4
f 257/7/4 252/7/4 265/7/4
f 264/5/4 257/5/4 265/5/4
f 265/7/4 252/7/4 266/7/4
f 258/3/4 259/3/4 267/3/4
f 260/8/4 261/8/4 268/8/4
f 267/3/4 259/3/4 268/3/4
f 259/8/4 260/8/4 268/8/4
f 268/8/4 261/8/4 269/8/4
f 261/7/4 262/7/4 270/7/4
f 262/3/4 263/3/4 270/3/4
f 263/8/4 264/8/4 271/8/4
f 270/3/4 263/3/4 271/3/4
f 264/8/4 265/8/4 271/8/4
f 271/8/4 265/8/4 272/8/4
f 265/6/4 266/6/4 273/6/4
f 272/8/4 265/8/4 273/8/4
f 273/6/4 266/6/4 274/6/4
f 267/1/4 268/1/4 275/1/4
f 268/5/4 269/5/4 276/5/4
f 275/1/4 268/1/4 276/1/4
f 269/8/4 261/8/4 277/8/4
f 276/5/4 269/5/4 277/5/4
f 261/7/4 270/7/4 278/7/4
f 277/8/4 261/8/4 278/8/4
f 270/1/4 271/1/4 279/1/4
f 278/7/4 270/7/4 279/7/4
f 271/2/4 272/2/4 280/2/4
f 279/1/4 271/1/4 280/1/4
f 272/4/4 273/4/4 281/4/4
f 280/2/4 272/2/4 281/2/4
f 273/2/4 274/2/4 282/2/4
f 281/4/4 273/4/4 282/4/4
f 282/2/4 274/2/4 283/2/4
f 275/3/4 276/3/4 284/3/4
f 276/6/4 277/6/4 285/6/4
f 284/3/4 276/3/4 285/3/4
f 277/7/4 278/7/4 286/7/4
f 285/6/4 277/6/4 286/6/4
f 278/6/4 279/6/4 287/6/4
f 286/7/4 278/7/4 287/7/4
f 279/1/4 280/1/4 288/1/4
f 287/6/4 279/6/4 288/6/4
f 280/6/4 281/6/4 289/6/4
f 288/1/4 280/1/4 289/1/4
f 281/7/4 282/7/4 290/7/4
f 289/6/4 281/6/4 290/6/4
f 282/7/4 283/7/4 290/7/4
f 290/7/4 283/7/4 291/7/4
f 300/1/5 293/1/5 292/1/5
f 301/3/5 294/3/5 293/3/5
f 301/1/5 293/1/5 300/1/5
f 302/1/5 295/1/5 294/1/5
f 302/3/5 294/3/5 301/3/5
f 303/3/5 296/3/5 295/3/5
f 303/1/5 295/1/5 302/1/5
f 304/1/5 297/1/5 296/1/5
f 304/3/5 296/3/5 303/3/5
f 305/3/5 298/3/5 297/3/5
f 305/1/5 297/1/5 304/1/5
f 306/1/5 299/1/5 298/1/5
f 306/3/5 298/3/5 305/3/5
f 307/1/5 299/1/5 306/1/5
f 308/3/5 301/3/5 300/3/5
f 309/8/5 305/8/5 304/8/5
f 309/3/5 301/3/5 308/3/5
f 309/8/5 302/8/5 301/8/5
f 309/8/5 303/8/5 302/8/5
f 309/8/5 306/8/5 305/8/5
f 309/8/5 304/8/5 303/8/5
f 310/3/5 307/3/5 306/3/5
f 310/8/5 306/8/5 309/8/5
f 311/3/5 307/3/5 310/3/5
f 312/1/5 309/1/5 308/1/5
f 313/8/5 310/8/5 309/8/5
f 313/1/5 309/1/5 312/1/5
f 314/3/5 313/3/5 312/3/5
f 315/8/5 310/8/5 313/8/5
f 315/3/5 313/3/5 314/3/5
f 316/1/5 311/1/5 310/1/5
f 316/8/5 310/8/5 315/8/5
f 317/1/5 311/1/5 316/1/5
f 318/8/5 316/8/5 315/8/5
f 318/3/5 317/3/5 316/3/5
f 319/3/5 317/3/5 318/3/5
f 320/1/5 315/1/5 314/1/5
f 321/8/5 318/8/5 315/8/5
f 321/1/5 315/1/5 320/1/5
f 322/8/5 318/8/5 321/8/5
f 323/8/5 318/8/5 322/8/5
f 324/8/5 318/8/5 323/8/5
f 325/8/5 318/8/5 324/8/5
f 326/1/5 319/1/5 318/1/5
f 326/8/5 318/8/5 325/8/5
f 327/1/5 319/1/5 326/1/5
f 328/3/5 321/3/5 320/3/5
f 329/1/5 322/1/5 321/1/5
f 329/3/5 321/3/5 328/3/5
f 330/3/5 323/3/5 322/3/5
f 330/1/5 322/1/5 329/1/5
f 331/1/5 324/1/5 323/1/5
f 331/3/5 323/3/5 330/3/5
f 332/3/5 325/3/5 324/3/5
f 332/1/5 324/1/5 331/1/5
f 333/1/5 326/1/5 325/1/5
f 333/3/5 325/3/5 332/3/5
f 334/3/5 327/3/5 326/3/5
f 334/1/5 326/1/5 333/1/5
f 335/3/5 327/3/5 334/3/5
f 336/6/6 337/6/6 344/6/6
f 337/2/6 338/2/6 345/2/6
f 344/6/6 337/6/6 345/6/6
f 338/7/6 339/7/6 346/7/6
f 345/2/6 338/2/6 346/2/6
f 339/6/6 340/6/6 347/6/6
f 346/7/6 339/7/6 347/7/6
f 340/7/6 341/7/6 348/7/6
f 347/6/6 340/6/6 348/6/6
f 341/6/6 342/6/6 349/6/6
f 348/7/6 341/7/6 349/7/6
f 342/7/6 343/7/6 350/7/6
f 349/6/6 342/6/6 350/6/6
f 350/7/6 343/7/6 351/7/6
f 348/8/6 349/8/6 352/8/6
f 345/8/6 346/8/6 352/8/6
f 350/2/6 351/2/6 352/2/6
f 349/8/6 350/8/6 352/8/6
f 347/8/6 348/8/6 352/8/6
f 346/8/6 347/8/6 352/8/6
f 352/2/6 351/2/6 353/2/6
f 344/7/6 345/7/6 354/7/6
f 345/8/6 352/8/6 355/8/6
f 354/7/6 345/7/6 355/7/6
f 352/7/6 353/7/6 356/7/6
f 355/8/6 352/8/6 356/8/6
f 356/7/6 353/7/6 357/7/6
f 354/6/6 355/6/6 358/6/6
f 355/8/6 356/8/6 359/8/6
f 358/6/6 355/6/6 359/6/6
f 356/6/6 357/6/6 360/6/6
f 359/8/6 356/8/6 360/8/6
f 360/6/6 357/6/6 361/6/6
f 358/7/6 359/7/6 362/7/6
f 359/8/6 360/8/6 363/8/6
f 362/7/6 359/7/6 363/7/6
f 360/7/6 361/7/6 364/7/6
f 363/8/6 360/8/6 364/8/6
f 364/7/6 361/7/6 365/7/6
f 362/2/6 363/2/6 366/2/6
f 363/8/6 364/8/6 367/8/6
f 366/2/6 363/2/6 367/2/6
f 367/8/6 364/8/6 368/8/6
f 368/8/6 364/8/6 369/8/6
f 369/8/6 364/8/6 370/8/6
f 370/8/6 364/8/6 371/8/6
f 364/6/6 365/6/6 372/6/6
f 371/8/6 364/8/6 372/8/6
f 372/6/6 365/6/6 373/6/6
f 366/7/6 367/7/6 374/7/6
f 367/7/6 368/7/6 374/7/6
f 368/6/6 369/6/6 375/6/6
f 374/7/6 368/7/6 375/7/6
f 369/7/6 370/7/6 376/7/6
f 375/6/6 369/6/6 376/6/6
f 370/6/6 371/6/6 377/6/6
f 376/7/6 370/7/6 377/7/6
f 371/2/6 372/2/6 378/2/6
f 377/6/6 371/6/6 378/6/6
f 372/7/6 373/7/6 379/7/6
f 378/2/6 372/2/6 379/2/6
f 379/7/6 373/7/6 380/7/6
